<svg width="55" height="55" viewBox="0 0 55 55" fill="none" xmlns="http://www.w3.org/2000/svg">
<g clip-path="url(#clip0_121_556)">
<path d="M27.5 0.189209C12.3105 0.189209 0 12.2759 0 27.1892C0 42.1025 12.3105 54.1892 27.5 54.1892C42.6895 54.1892 55 42.1025 55 27.1892C55 12.2759 42.6895 0.189209 27.5 0.189209ZM44.666 44.0326C42.4316 46.2263 39.8428 47.9455 36.9531 49.1373C33.9668 50.3818 30.7871 51.0041 27.5 51.0041C24.2236 51.0041 21.0439 50.3712 18.0469 49.1373C15.1572 47.9349 12.5576 46.2158 10.334 44.0326C8.09961 41.8388 6.34863 39.297 5.13477 36.4599C3.86719 33.5279 3.22266 30.406 3.22266 27.1892C3.22266 23.9724 3.86719 20.8505 5.12402 17.908C6.34863 15.0708 8.09961 12.5185 10.3232 10.3353C12.5684 8.14155 15.1572 6.42241 18.0469 5.22007C21.0439 3.98608 24.2236 3.35327 27.5 3.35327C30.7764 3.35327 33.9561 3.98608 36.9531 5.22007C39.8428 6.42241 42.4424 8.14155 44.666 10.3248C46.9004 12.5185 48.6514 15.0603 49.8652 17.8974C51.1328 20.8294 51.7666 23.9513 51.7666 27.1787C51.7666 30.3955 51.1221 33.5173 49.8652 36.4599C48.6406 39.297 46.8896 41.8494 44.666 44.0326Z" fill="#1F1F1F"/>
<path d="M38.6074 19.4163H31.3242V21.494H38.6074V19.4163Z" fill="#1F1F1F"/>
<path d="M40.1328 25.0586C39.5635 24.2254 38.8437 23.6137 37.9629 23.234C37.0928 22.8438 36.1045 22.6539 34.998 22.6645C33.1611 22.6645 31.668 23.234 30.5078 24.3731C29.3584 25.5121 28.7783 27.1469 28.7783 29.2879C28.7783 31.566 29.4229 33.2114 30.7012 34.2239C31.9795 35.2364 33.4512 35.7426 35.127 35.7426C37.1572 35.7426 38.7256 35.1414 39.8535 33.9391C40.5732 33.1797 40.9814 32.4309 41.0674 31.7031H37.7158C37.5225 32.0723 37.2969 32.3571 37.0391 32.5574C36.5664 32.9371 35.9541 33.127 35.2129 33.127C34.5039 33.127 33.9023 32.9688 33.3975 32.6629C32.5703 32.1672 32.1406 31.2918 32.0869 30.0578H41.2393C41.2607 28.9926 41.2178 28.1805 41.1318 27.611C40.9814 26.6407 40.6484 25.7864 40.1328 25.0586ZM32.1729 27.9274C32.3018 27.1258 32.5918 26.493 33.0537 26.0184C33.5156 25.5543 34.1709 25.3117 35.0088 25.3117C35.7822 25.3117 36.4375 25.5332 36.9639 25.9762C37.4795 26.4192 37.7695 27.0731 37.834 27.9274H32.1729Z" fill="#1F1F1F"/>
<path d="M25.0615 26.3771C25.6309 26.0924 26.0713 25.776 26.3613 25.4279C26.8877 24.8057 27.1455 23.983 27.1455 22.9705C27.1455 21.9791 26.8877 21.1248 26.3721 20.4182C25.502 19.258 24.0303 18.6674 21.9678 18.6357H13.75V35.3314H21.3984C22.2686 35.3314 23.0635 35.2576 23.8047 35.11C24.5459 34.9518 25.1904 34.6775 25.7275 34.2662C26.2109 33.9182 26.6084 33.4752 26.9307 32.9584C27.4463 32.1779 27.6934 31.292 27.6934 30.3006C27.6934 29.3408 27.4678 28.5287 27.0273 27.8537C26.5869 27.1787 25.9316 26.6936 25.0615 26.3771ZM17.1338 21.5361H20.8291C21.6455 21.5361 22.3115 21.6311 22.8379 21.7998C23.4502 22.0529 23.751 22.5592 23.751 23.3396C23.751 24.0357 23.5254 24.5314 23.0635 24.8057C22.6016 25.0799 22.0107 25.217 21.2695 25.217H17.1338V21.5361ZM22.9883 32.1252C22.5801 32.3256 22.0107 32.4205 21.2695 32.4205H17.1338V27.9697H21.3232C22.0537 27.9803 22.6123 28.0752 23.0205 28.2545C23.751 28.5814 24.1055 29.1826 24.1055 30.0475C24.1055 31.0705 23.7402 31.7561 22.9883 32.1252Z" fill="#1F1F1F"/>
</g>
<defs>
<clipPath id="clip0_121_556">
<rect width="55" height="54" fill="#E0D9CE" transform="translate(0 0.189209)"/>
</clipPath>
</defs>
</svg>
