<svg width="55" height="55" viewBox="0 0 55 55" fill="none" xmlns="http://www.w3.org/2000/svg">
<path fill-rule="evenodd" clip-rule="evenodd" d="M13.8457 3.26318C7.77057 3.26318 2.8457 8.18805 2.8457 14.2632V41.0173C2.8457 47.0925 7.77057 52.0173 13.8457 52.0173H40.5999C46.675 52.0173 51.5999 47.0925 51.5999 41.0173V14.2632C51.5999 8.18805 46.675 3.26318 40.5999 3.26318H13.8457ZM31.4415 20.609H41.2852V17.7965H31.4415V20.609ZM36.5392 38.8903C40.8592 38.8903 43.0909 36.4954 43.7124 34.6715H39.2574C37.7035 36.4757 32.9884 36.3337 32.8056 31.8182H44.0935C44.1132 30.4795 44.0696 29.5204 43.9599 28.8089C43.382 25.0908 40.7354 22.5848 36.4013 22.5848C31.9843 22.5848 28.7148 25.4114 28.7148 30.9098C28.7148 36.4589 32.2164 38.8903 36.5392 38.8903ZM39.886 29.0465H32.904C33.2007 27.0061 34.3412 25.9261 36.4028 25.9261C38.2885 25.9261 39.7384 26.8711 39.886 29.0465ZM10.3478 38.8734H19.4406C28.9806 38.8734 28.8174 29.3095 23.9504 27.5376C27.9723 25.4817 27.826 17.94 20.1254 17.8261H10.3478V38.8734ZM19.6065 26.234H14.5665V22.0153H19.1678C23.6931 22.0153 23.1334 26.234 19.6065 26.234ZM14.5665 30.4528H19.3351C23.2979 30.4528 23.5609 34.694 19.2648 34.694H14.5665V30.4528Z" fill="#1F1F1F"/>
</svg>
