<svg width="53" height="53" viewBox="0 0 53 53" fill="none" xmlns="http://www.w3.org/2000/svg">
<path d="M35.9304 28.4306V38.669C35.9304 47.201 32.5176 50.6137 23.9856 50.6137H13.7473C5.21528 50.6137 1.80249 47.201 1.80249 38.669V28.4306C1.80249 19.8986 5.21528 16.4858 13.7473 16.4858H23.9856C32.5176 16.4858 35.9304 19.8986 35.9304 28.4306Z" stroke="#1F1F1F" stroke-width="3.32" stroke-linecap="round" stroke-linejoin="round"/>
<path d="M50.5566 13.8044V24.0428C50.5566 32.5747 47.1438 35.9875 38.6118 35.9875H35.9304V28.4306C35.9304 19.8987 32.5176 16.4859 23.9856 16.4859H16.4287V13.8044C16.4287 5.27241 19.8415 1.85962 28.3735 1.85962H38.6118C47.1438 1.85962 50.5566 5.27241 50.5566 13.8044Z" stroke="#1F1F1F" stroke-width="3.32" stroke-linecap="round" stroke-linejoin="round"/>
</svg>
