<svg width="52" height="53" viewBox="0 0 52 53" fill="none" xmlns="http://www.w3.org/2000/svg">
<path d="M49.3928 21.8335H26.3977V30.8847H39.8522C39.6076 33.0864 38.1398 36.5112 34.9597 38.7128C33.0026 40.1806 30.0671 41.1591 26.3977 41.1591C20.0373 41.1591 14.4109 37.0004 12.4538 30.8847C11.9646 29.417 11.72 27.7046 11.72 25.9922C11.72 24.2798 11.9646 22.5674 12.4538 21.0996C12.6985 20.6103 12.6985 20.1211 12.9431 19.8764C15.1448 14.7392 20.282 11.0698 26.3977 11.0698C31.0456 11.0698 33.9812 13.0268 35.9382 14.7392L42.7878 7.88964C38.6291 4.22021 33.0026 1.77393 26.3977 1.77393C16.8572 1.77393 8.53979 7.15576 4.62573 15.2285C2.91333 18.6533 1.93481 22.3227 1.93481 26.2368C1.93481 30.1508 2.91333 33.8203 4.62573 37.2451C8.53979 45.3178 16.8572 50.6996 26.3977 50.6996C33.0026 50.6996 38.6291 48.498 42.5432 44.8286C47.1911 40.6699 49.882 34.3095 49.882 26.726C49.882 24.769 49.6374 23.3012 49.3928 21.8335Z" stroke="#1F1F1F" stroke-width="2.89495" stroke-miterlimit="10" stroke-linecap="round" stroke-linejoin="round"/>
</svg>
