<svg width="55" height="55" viewBox="0 0 55 55" fill="none" xmlns="http://www.w3.org/2000/svg">
<path fill-rule="evenodd" clip-rule="evenodd" d="M3.00452 17.0601C3.00452 9.44025 9.18159 3.26318 16.8014 3.26318H37.9618C45.5816 3.26318 51.7587 9.44025 51.7587 17.0601V38.2205C51.7587 45.8403 45.5816 52.0173 37.9618 52.0173H16.8014C9.18158 52.0173 3.00452 45.8403 3.00452 38.2205V17.0601ZM27.847 36.964C32.8752 36.964 36.9513 32.8879 36.9513 27.8597C36.9513 22.8315 32.8752 18.7554 27.847 18.7554C22.8188 18.7554 18.7427 22.8315 18.7427 27.8597C18.7427 32.8879 22.8188 36.964 27.847 36.964ZM27.847 40.2867C34.7103 40.2867 40.274 34.723 40.274 27.8597C40.274 20.9964 34.7103 15.4326 27.847 15.4326C20.9837 15.4326 15.4199 20.9964 15.4199 27.8597C15.4199 34.723 20.9837 40.2867 27.847 40.2867ZM41.0689 17.9294C42.6663 17.9294 43.9613 16.6345 43.9613 15.0371C43.9613 13.4397 42.6663 12.1448 41.0689 12.1448C39.4716 12.1448 38.1766 13.4397 38.1766 15.0371C38.1766 16.6345 39.4716 17.9294 41.0689 17.9294Z" fill="#1F1F1F"/>
</svg>
