<svg width="55" height="55" viewBox="0 0 55 55" fill="none" xmlns="http://www.w3.org/2000/svg">
<path d="M14.545 49.3384C18.3999 51.6514 23.0259 52.9364 27.6518 52.9364C41.7866 52.9364 53.3514 41.3716 53.3514 27.2368C53.3514 13.1019 41.7866 1.53711 27.6518 1.53711C13.517 1.53711 1.95215 13.1019 1.95215 27.2368C1.95215 31.8627 3.23713 36.2316 5.2931 40.0866L3.08293 48.5829C2.96891 49.0215 2.97289 49.4825 3.09449 49.919C3.21609 50.3556 3.45097 50.7523 3.77531 51.0688C4.09966 51.3853 4.50194 51.6104 4.94136 51.7213C5.38077 51.8322 5.8417 51.8249 6.2774 51.7002L14.545 49.3384Z" stroke="#1F1F1F" stroke-width="2.89495" stroke-miterlimit="10" stroke-linecap="round" stroke-linejoin="round"/>
<path d="M42.4684 36.6135C42.4684 37.1469 42.3499 37.6967 42.0964 38.2301C41.8377 38.7812 41.4981 39.2906 41.0889 39.7414C40.3613 40.5414 39.5612 41.1176 38.6525 41.4896C37.7635 41.8617 36.7988 42.0527 35.7617 42.0527C34.2472 42.0527 32.6306 41.6971 30.9218 40.9727C29.1153 40.1895 27.4033 39.2043 25.8185 38.0359C24.0949 36.7768 22.4683 35.3901 20.9523 33.8874C19.4525 32.3798 18.069 30.7608 16.8137 29.0442C15.6601 27.4732 14.684 25.7794 13.9032 23.9936C13.192 22.298 12.8364 20.6847 12.8364 19.1471C12.8364 18.1396 13.0142 17.1782 13.3698 16.2893C13.7254 15.3839 14.2917 14.5542 15.0786 13.8134C16.0268 12.8783 17.0639 12.4207 18.1636 12.4207C18.5784 12.4207 18.9933 12.5095 19.3653 12.6873C19.7506 12.8651 20.0897 13.1318 20.3597 13.517L23.8036 18.3635C24.067 18.7323 24.2645 19.0747 24.3962 19.4006C24.5279 19.7101 24.6036 20.0229 24.6036 20.3028C24.5993 20.6762 24.491 21.0411 24.2908 21.3563C24.0622 21.7418 23.7832 22.095 23.4611 22.4066L22.3318 23.5787C22.2533 23.6556 22.1916 23.748 22.1508 23.8501C22.11 23.9521 22.0909 24.0616 22.0948 24.1714C22.0948 24.2866 22.1112 24.392 22.1409 24.5105C22.1837 24.629 22.2298 24.7179 22.2594 24.8068C22.5228 25.2974 22.9837 25.9328 23.6389 26.7033C24.3073 27.4737 25.0185 28.2606 25.7889 29.0442C26.5923 29.8311 27.3627 30.5554 28.1496 31.2238C28.92 31.8724 29.5587 32.3169 30.0625 32.5836L30.3325 32.7054C30.4507 32.7476 30.5757 32.7677 30.7012 32.7647C30.8148 32.7671 30.9276 32.7458 31.0325 32.7022C31.1374 32.6585 31.232 32.5935 31.3103 32.5111L32.4363 31.3983C32.8084 31.0295 33.164 30.7497 33.5064 30.5686C33.8213 30.3679 34.1866 30.2606 34.56 30.2591C34.8716 30.2637 35.1793 30.3297 35.4654 30.4534C35.7913 30.5851 36.1338 30.776 36.5025 31.0295L41.4148 34.513C41.7708 34.7445 42.0539 35.0721 42.2314 35.4579C42.3853 35.8239 42.4658 36.2165 42.4684 36.6135Z" stroke="#1F1F1F" stroke-width="2.89495" stroke-miterlimit="10"/>
</svg>
