<svg width="272" height="330" viewBox="0 0 272 330" fill="none" xmlns="http://www.w3.org/2000/svg">
<rect x="0.112793" y="0.791016" width="271.511" height="328.697" fill="white"/>
<rect x="12.1895" y="67.4531" width="247.358" height="247.424" fill="white"/>
<rect x="12.1895" y="15.4023" width="247.358" height="158.225" fill="url(#paint0_linear_788_534)"/>
<rect x="12.1895" y="15.4023" width="247.358" height="158.225" fill="url(#paint1_linear_788_534)"/>
<rect x="25.8682" y="236.234" width="30" height="30" rx="3" fill="#FF0000"/>
<rect x="63.8682" y="236.234" width="30" height="30" rx="3" fill="#27926B"/>
<rect x="139.868" y="236.234" width="30" height="30" rx="3" fill="#165164"/>
<rect x="101.868" y="236.234" width="30" height="30" rx="3" fill="#FFB263"/>
<rect x="215.868" y="236.234" width="30" height="30" rx="3" fill="#CAF2FF"/>
<rect x="177.868" y="236.234" width="30" height="30" rx="3" fill="#FF7500"/>
<rect x="25.8682" y="274.234" width="30" height="30" rx="3" fill="#FFE600"/>
<rect x="63.8682" y="274.234" width="30" height="30" rx="3" fill="#59D359"/>
<rect x="139.868" y="274.234" width="30" height="30" rx="3" fill="#0F60D9"/>
<rect x="101.868" y="274.234" width="30" height="30" rx="3" fill="#38CCED"/>
<rect x="215.868" y="274.234" width="30" height="30" rx="3" fill="#F0F3FF"/>
<rect x="177.868" y="274.234" width="30" height="30" rx="3" fill="#5B8946"/>
<rect x="23.0059" y="184.635" width="204.697" height="13.1035" rx="6.55176" fill="url(#paint2_linear_788_534)"/>
<circle cx="6.55176" cy="6.55176" r="5.85176" transform="matrix(-1 0 0 1 34.8525 184.635)" fill="#FF0000" stroke="white" stroke-width="1.4"/>
<rect x="26.3682" y="207.588" width="65.0773" height="19.668" stroke="#A6A6A6"/>
<path d="M36.1307 217.224L35.6627 219.444H37.3787V220.188H35.5067L34.9547 222.756H34.1507L34.7027 220.188H32.0387L31.4867 222.756H30.6827L31.2347 220.188H29.3267V219.444H31.3907L31.8587 217.224H29.9867V216.48H32.0267L32.5787 213.876H33.3827L32.8307 216.48H35.4947L36.0467 213.876H36.8507L36.2987 216.48H38.0387V217.224H36.1307ZM35.3267 217.224H32.6627L32.1947 219.444H34.8587L35.3267 217.224ZM44.141 214.368V215.064H40.445V218.196H43.565V218.892H40.445V222.756H39.605V214.368H44.141ZM50.059 214.368V215.064H46.363V218.196H49.483V218.892H46.363V222.756H45.523V214.368H50.059ZM51.261 218.376C51.261 217 51.473 215.932 51.897 215.172C52.321 214.412 53.081 214.032 54.177 214.032C55.273 214.032 56.033 214.412 56.457 215.172C56.881 215.932 57.093 217 57.093 218.376C57.093 219.776 56.881 220.86 56.457 221.628C56.033 222.396 55.273 222.78 54.177 222.78C53.073 222.78 52.309 222.396 51.885 221.628C51.469 220.86 51.261 219.776 51.261 218.376ZM56.265 218.376C56.265 217.632 56.213 217.004 56.109 216.492C56.005 215.98 55.801 215.568 55.497 215.256C55.193 214.944 54.753 214.788 54.177 214.788C53.601 214.788 53.161 214.944 52.857 215.256C52.553 215.568 52.349 215.98 52.245 216.492C52.141 217.004 52.089 217.632 52.089 218.376C52.089 219.144 52.141 219.788 52.245 220.308C52.349 220.82 52.553 221.232 52.857 221.544C53.161 221.856 53.601 222.012 54.177 222.012C54.753 222.012 55.193 221.856 55.497 221.544C55.801 221.232 56.005 220.82 56.109 220.308C56.213 219.788 56.265 219.144 56.265 218.376ZM58.6555 218.376C58.6555 217 58.8675 215.932 59.2915 215.172C59.7155 214.412 60.4755 214.032 61.5715 214.032C62.6675 214.032 63.4275 214.412 63.8515 215.172C64.2755 215.932 64.4875 217 64.4875 218.376C64.4875 219.776 64.2755 220.86 63.8515 221.628C63.4275 222.396 62.6675 222.78 61.5715 222.78C60.4675 222.78 59.7035 222.396 59.2795 221.628C58.8635 220.86 58.6555 219.776 58.6555 218.376ZM63.6595 218.376C63.6595 217.632 63.6075 217.004 63.5035 216.492C63.3995 215.98 63.1955 215.568 62.8915 215.256C62.5875 214.944 62.1475 214.788 61.5715 214.788C60.9955 214.788 60.5555 214.944 60.2515 215.256C59.9475 215.568 59.7435 215.98 59.6395 216.492C59.5355 217.004 59.4835 217.632 59.4835 218.376C59.4835 219.144 59.5355 219.788 59.6395 220.308C59.7435 220.82 59.9475 221.232 60.2515 221.544C60.5555 221.856 60.9955 222.012 61.5715 222.012C62.1475 222.012 62.5875 221.856 62.8915 221.544C63.1955 221.232 63.3995 220.82 63.5035 220.308C63.6075 219.788 63.6595 219.144 63.6595 218.376ZM66.05 218.376C66.05 217 66.262 215.932 66.686 215.172C67.11 214.412 67.87 214.032 68.966 214.032C70.062 214.032 70.822 214.412 71.246 215.172C71.67 215.932 71.882 217 71.882 218.376C71.882 219.776 71.67 220.86 71.246 221.628C70.822 222.396 70.062 222.78 68.966 222.78C67.862 222.78 67.098 222.396 66.674 221.628C66.258 220.86 66.05 219.776 66.05 218.376ZM71.054 218.376C71.054 217.632 71.002 217.004 70.898 216.492C70.794 215.98 70.59 215.568 70.286 215.256C69.982 214.944 69.542 214.788 68.966 214.788C68.39 214.788 67.95 214.944 67.646 215.256C67.342 215.568 67.138 215.98 67.034 216.492C66.93 217.004 66.878 217.632 66.878 218.376C66.878 219.144 66.93 219.788 67.034 220.308C67.138 220.82 67.342 221.232 67.646 221.544C67.95 221.856 68.39 222.012 68.966 222.012C69.542 222.012 69.982 221.856 70.286 221.544C70.59 221.232 70.794 220.82 70.898 220.308C71.002 219.788 71.054 219.144 71.054 218.376ZM73.4446 218.376C73.4446 217 73.6566 215.932 74.0806 215.172C74.5046 214.412 75.2646 214.032 76.3606 214.032C77.4566 214.032 78.2166 214.412 78.6406 215.172C79.0646 215.932 79.2766 217 79.2766 218.376C79.2766 219.776 79.0646 220.86 78.6406 221.628C78.2166 222.396 77.4566 222.78 76.3606 222.78C75.2566 222.78 74.4926 222.396 74.0686 221.628C73.6526 220.86 73.4446 219.776 73.4446 218.376ZM78.4486 218.376C78.4486 217.632 78.3966 217.004 78.2926 216.492C78.1886 215.98 77.9846 215.568 77.6806 215.256C77.3766 214.944 76.9366 214.788 76.3606 214.788C75.7846 214.788 75.3446 214.944 75.0406 215.256C74.7366 215.568 74.5326 215.98 74.4286 216.492C74.3246 217.004 74.2726 217.632 74.2726 218.376C74.2726 219.144 74.3246 219.788 74.4286 220.308C74.5326 220.82 74.7366 221.232 75.0406 221.544C75.3446 221.856 75.7846 222.012 76.3606 222.012C76.9366 222.012 77.3766 221.856 77.6806 221.544C77.9846 221.232 78.1886 220.82 78.2926 220.308C78.3966 219.788 78.4486 219.144 78.4486 218.376Z" fill="black"/>
<rect x="97.3237" y="207.588" width="32.6135" height="19.668" stroke="#A6A6A6"/>
<path d="M101.242 222.096C102.714 220.992 103.85 220.004 104.65 219.132C105.458 218.252 105.862 217.392 105.862 216.552C105.862 216 105.722 215.56 105.442 215.232C105.17 214.896 104.722 214.728 104.098 214.728C103.49 214.728 103.018 214.92 102.682 215.304C102.354 215.68 102.17 216.184 102.13 216.816H101.314C101.362 215.928 101.634 215.24 102.13 214.752C102.634 214.256 103.29 214.008 104.098 214.008C104.874 214.008 105.502 214.228 105.982 214.668C106.462 215.1 106.702 215.716 106.702 216.516C106.702 217.484 106.298 218.424 105.49 219.336C104.69 220.24 103.702 221.124 102.526 221.988H106.966V222.696H101.242V222.096ZM113.702 214.872H109.31V217.944C109.51 217.664 109.802 217.436 110.186 217.26C110.57 217.076 110.986 216.984 111.434 216.984C112.09 216.984 112.626 217.12 113.042 217.392C113.458 217.656 113.758 218.004 113.942 218.436C114.126 218.86 114.218 219.316 114.218 219.804C114.218 220.364 114.11 220.872 113.894 221.328C113.686 221.776 113.362 222.132 112.922 222.396C112.49 222.66 111.95 222.792 111.302 222.792C110.478 222.792 109.81 222.58 109.298 222.156C108.786 221.724 108.474 221.144 108.362 220.416H109.19C109.294 220.944 109.534 221.352 109.91 221.64C110.286 221.928 110.75 222.072 111.302 222.072C111.998 222.072 112.522 221.868 112.874 221.46C113.234 221.044 113.414 220.496 113.414 219.816C113.414 219.152 113.234 218.636 112.874 218.268C112.514 217.892 111.998 217.704 111.326 217.704C110.862 217.704 110.454 217.812 110.102 218.028C109.75 218.244 109.49 218.536 109.322 218.904H108.53V214.14H113.702V214.872ZM121.108 214.872H116.716V217.944C116.916 217.664 117.208 217.436 117.592 217.26C117.976 217.076 118.392 216.984 118.84 216.984C119.496 216.984 120.032 217.12 120.448 217.392C120.864 217.656 121.164 218.004 121.348 218.436C121.532 218.86 121.624 219.316 121.624 219.804C121.624 220.364 121.516 220.872 121.3 221.328C121.092 221.776 120.768 222.132 120.328 222.396C119.896 222.66 119.356 222.792 118.708 222.792C117.884 222.792 117.216 222.58 116.704 222.156C116.192 221.724 115.88 221.144 115.768 220.416H116.596C116.7 220.944 116.94 221.352 117.316 221.64C117.692 221.928 118.156 222.072 118.708 222.072C119.404 222.072 119.928 221.868 120.28 221.46C120.64 221.044 120.82 220.496 120.82 219.816C120.82 219.152 120.64 218.636 120.28 218.268C119.92 217.892 119.404 217.704 118.732 217.704C118.268 217.704 117.86 217.812 117.508 218.028C117.156 218.244 116.896 218.536 116.728 218.904H115.936V214.14H121.108V214.872Z" fill="black"/>
<rect x="136.597" y="207.588" width="32.6135" height="19.668" stroke="#A6A6A6"/>
<path d="M140.516 222.096C141.988 220.992 143.124 220.004 143.924 219.132C144.732 218.252 145.136 217.392 145.136 216.552C145.136 216 144.996 215.56 144.716 215.232C144.444 214.896 143.996 214.728 143.372 214.728C142.764 214.728 142.292 214.92 141.956 215.304C141.628 215.68 141.444 216.184 141.404 216.816H140.588C140.636 215.928 140.908 215.24 141.404 214.752C141.908 214.256 142.564 214.008 143.372 214.008C144.148 214.008 144.776 214.228 145.256 214.668C145.736 215.1 145.976 215.716 145.976 216.516C145.976 217.484 145.572 218.424 144.764 219.336C143.964 220.24 142.976 221.124 141.8 221.988H146.24V222.696H140.516V222.096ZM152.975 214.872H148.583V217.944C148.783 217.664 149.075 217.436 149.459 217.26C149.843 217.076 150.259 216.984 150.707 216.984C151.363 216.984 151.899 217.12 152.315 217.392C152.731 217.656 153.031 218.004 153.215 218.436C153.399 218.86 153.491 219.316 153.491 219.804C153.491 220.364 153.383 220.872 153.167 221.328C152.959 221.776 152.635 222.132 152.195 222.396C151.763 222.66 151.223 222.792 150.575 222.792C149.751 222.792 149.083 222.58 148.571 222.156C148.059 221.724 147.747 221.144 147.635 220.416H148.463C148.567 220.944 148.807 221.352 149.183 221.64C149.559 221.928 150.023 222.072 150.575 222.072C151.271 222.072 151.795 221.868 152.147 221.46C152.507 221.044 152.687 220.496 152.687 219.816C152.687 219.152 152.507 218.636 152.147 218.268C151.787 217.892 151.271 217.704 150.599 217.704C150.135 217.704 149.727 217.812 149.375 218.028C149.023 218.244 148.763 218.536 148.595 218.904H147.803V214.14H152.975V214.872ZM160.381 214.872H155.989V217.944C156.189 217.664 156.481 217.436 156.865 217.26C157.249 217.076 157.665 216.984 158.113 216.984C158.769 216.984 159.305 217.12 159.721 217.392C160.137 217.656 160.437 218.004 160.621 218.436C160.805 218.86 160.897 219.316 160.897 219.804C160.897 220.364 160.789 220.872 160.573 221.328C160.365 221.776 160.041 222.132 159.601 222.396C159.169 222.66 158.629 222.792 157.981 222.792C157.157 222.792 156.489 222.58 155.977 222.156C155.465 221.724 155.153 221.144 155.041 220.416H155.869C155.973 220.944 156.213 221.352 156.589 221.64C156.965 221.928 157.429 222.072 157.981 222.072C158.677 222.072 159.201 221.868 159.553 221.46C159.913 221.044 160.093 220.496 160.093 219.816C160.093 219.152 159.913 218.636 159.553 218.268C159.193 217.892 158.677 217.704 158.005 217.704C157.541 217.704 157.133 217.812 156.781 218.028C156.429 218.244 156.169 218.536 156.001 218.904H155.209V214.14H160.381V214.872Z" fill="black"/>
<rect x="174.755" y="207.588" width="32.6135" height="19.668" stroke="#A6A6A6"/>
<rect x="212.755" y="207.588" width="32.6135" height="19.668" stroke="#A6A6A6"/>
<path d="M178.674 222.096C180.146 220.992 181.282 220.004 182.082 219.132C182.89 218.252 183.294 217.392 183.294 216.552C183.294 216 183.154 215.56 182.874 215.232C182.602 214.896 182.154 214.728 181.53 214.728C180.922 214.728 180.45 214.92 180.114 215.304C179.786 215.68 179.602 216.184 179.562 216.816H178.746C178.794 215.928 179.066 215.24 179.562 214.752C180.066 214.256 180.722 214.008 181.53 214.008C182.306 214.008 182.934 214.228 183.414 214.668C183.894 215.1 184.134 215.716 184.134 216.516C184.134 217.484 183.73 218.424 182.922 219.336C182.122 220.24 181.134 221.124 179.958 221.988H184.398V222.696H178.674V222.096ZM191.133 214.872H186.741V217.944C186.941 217.664 187.233 217.436 187.617 217.26C188.001 217.076 188.417 216.984 188.865 216.984C189.521 216.984 190.057 217.12 190.473 217.392C190.889 217.656 191.189 218.004 191.373 218.436C191.557 218.86 191.649 219.316 191.649 219.804C191.649 220.364 191.541 220.872 191.325 221.328C191.117 221.776 190.793 222.132 190.353 222.396C189.921 222.66 189.381 222.792 188.733 222.792C187.909 222.792 187.241 222.58 186.729 222.156C186.217 221.724 185.905 221.144 185.793 220.416H186.621C186.725 220.944 186.965 221.352 187.341 221.64C187.717 221.928 188.181 222.072 188.733 222.072C189.429 222.072 189.953 221.868 190.305 221.46C190.665 221.044 190.845 220.496 190.845 219.816C190.845 219.152 190.665 218.636 190.305 218.268C189.945 217.892 189.429 217.704 188.757 217.704C188.293 217.704 187.885 217.812 187.533 218.028C187.181 218.244 186.921 218.536 186.753 218.904H185.961V214.14H191.133V214.872ZM198.539 214.872H194.147V217.944C194.347 217.664 194.639 217.436 195.023 217.26C195.407 217.076 195.823 216.984 196.271 216.984C196.927 216.984 197.463 217.12 197.879 217.392C198.295 217.656 198.595 218.004 198.779 218.436C198.963 218.86 199.055 219.316 199.055 219.804C199.055 220.364 198.947 220.872 198.731 221.328C198.523 221.776 198.199 222.132 197.759 222.396C197.327 222.66 196.787 222.792 196.139 222.792C195.315 222.792 194.647 222.58 194.135 222.156C193.623 221.724 193.311 221.144 193.199 220.416H194.027C194.131 220.944 194.371 221.352 194.747 221.64C195.123 221.928 195.587 222.072 196.139 222.072C196.835 222.072 197.359 221.868 197.711 221.46C198.071 221.044 198.251 220.496 198.251 219.816C198.251 219.152 198.071 218.636 197.711 218.268C197.351 217.892 196.835 217.704 196.163 217.704C195.699 217.704 195.291 217.812 194.939 218.028C194.587 218.244 194.327 218.536 194.159 218.904H193.367V214.14H198.539V214.872Z" fill="black"/>
<path d="M216.434 214.908V214.152H218.474V222.756H217.622V214.908H216.434Z" fill="black"/>
<rect x="234.433" y="182.529" width="17.3145" height="17.3145" rx="2.5" fill="white" stroke="#999999"/>
<defs>
<linearGradient id="paint0_linear_788_534" x1="135.868" y1="15.4023" x2="12.1895" y2="15.4023" gradientUnits="userSpaceOnUse">
<stop stop-color="#FF0000"/>
<stop offset="1" stop-color="white"/>
</linearGradient>
<linearGradient id="paint1_linear_788_534" x1="135.868" y1="15.4023" x2="135.868" y2="173.627" gradientUnits="userSpaceOnUse">
<stop stop-opacity="0"/>
<stop offset="1"/>
</linearGradient>
<linearGradient id="paint2_linear_788_534" x1="23.0059" y1="191.187" x2="227.703" y2="191.187" gradientUnits="userSpaceOnUse">
<stop stop-color="#FF0000"/>
<stop offset="0.15625" stop-color="#FFF500"/>
<stop offset="0.322917" stop-color="#00FF0A"/>
<stop offset="0.5" stop-color="#00FFF0"/>
<stop offset="0.6875" stop-color="#0029FF"/>
<stop offset="0.838542" stop-color="#FF00E6"/>
<stop offset="1" stop-color="#FF0000"/>
</linearGradient>
</defs>
</svg>
