<svg width="16" height="17" viewBox="0 0 16 17" fill="none" xmlns="http://www.w3.org/2000/svg">
<path d="M8.73719 2.86558L8.56119 10.8656H7.34519L7.16919 2.86558H8.73719ZM8.01719 14.1136C7.73985 14.1136 7.50519 14.0176 7.31319 13.8256C7.12119 13.6336 7.02519 13.3989 7.02519 13.1216C7.02519 12.8442 7.12119 12.6096 7.31319 12.4176C7.50519 12.2256 7.73985 12.1296 8.01719 12.1296C8.28385 12.1296 8.50785 12.2256 8.68919 12.4176C8.88119 12.6096 8.97719 12.8442 8.97719 13.1216C8.97719 13.3989 8.88119 13.6336 8.68919 13.8256C8.50785 14.0176 8.28385 14.1136 8.01719 14.1136Z" fill="#E0D9CE"/>
<circle cx="7.85938" cy="7.85938" r="7.35938" transform="matrix(-1 0 0 1 15.8594 0.732422)" stroke="#E0D9CE"/>
</svg>
