<svg width="272" height="330" viewBox="0 0 272 330" fill="none" xmlns="http://www.w3.org/2000/svg">
<rect x="0.112793" y="0.550781" width="271.511" height="328.697" fill="black"/>
<rect x="12.1895" y="67.2129" width="247.358" height="247.424" fill="black"/>
<rect x="12.1895" y="15.1621" width="247.358" height="158.225" fill="url(#paint0_linear_810_3099)"/>
<rect x="12.1895" y="15.1621" width="247.358" height="158.225" fill="url(#paint1_linear_810_3099)"/>
<rect x="25.8682" y="235.994" width="30" height="30" rx="3" fill="#FF0000"/>
<rect x="63.8682" y="235.994" width="30" height="30" rx="3" fill="#27926B"/>
<rect x="139.868" y="235.994" width="30" height="30" rx="3" fill="#165164"/>
<rect x="101.868" y="235.994" width="30" height="30" rx="3" fill="#FFB263"/>
<rect x="215.868" y="235.994" width="30" height="30" rx="3" fill="#CAF2FF"/>
<rect x="177.868" y="235.994" width="30" height="30" rx="3" fill="#FF7500"/>
<rect x="25.8682" y="273.994" width="30" height="30" rx="3" fill="#FFE600"/>
<rect x="63.8682" y="273.994" width="30" height="30" rx="3" fill="#59D359"/>
<rect x="139.868" y="273.994" width="30" height="30" rx="3" fill="#0F60D9"/>
<rect x="101.868" y="273.994" width="30" height="30" rx="3" fill="#38CCED"/>
<rect x="215.868" y="273.994" width="30" height="30" rx="3" fill="#F0F3FF"/>
<rect x="177.868" y="273.994" width="30" height="30" rx="3" fill="#5B8946"/>
<rect x="23.0059" y="184.395" width="204.697" height="13.1035" rx="6.55176" fill="url(#paint2_linear_810_3099)"/>
<circle cx="6.55176" cy="6.55176" r="5.85176" transform="matrix(-1 0 0 1 34.8525 184.395)" fill="#FF0000" stroke="black" stroke-width="1.4"/>
<rect x="26.3682" y="207.348" width="65.0773" height="19.668" stroke="#A6A6A6"/>
<path d="M36.1307 216.984L35.6627 219.204H37.3787V219.948H35.5067L34.9547 222.516H34.1507L34.7027 219.948H32.0387L31.4867 222.516H30.6827L31.2347 219.948H29.3267V219.204H31.3907L31.8587 216.984H29.9867V216.24H32.0267L32.5787 213.636H33.3827L32.8307 216.24H35.4947L36.0467 213.636H36.8507L36.2987 216.24H38.0387V216.984H36.1307ZM35.3267 216.984H32.6627L32.1947 219.204H34.8587L35.3267 216.984ZM44.141 214.128V214.824H40.445V217.956H43.565V218.652H40.445V222.516H39.605V214.128H44.141ZM50.059 214.128V214.824H46.363V217.956H49.483V218.652H46.363V222.516H45.523V214.128H50.059ZM51.261 218.136C51.261 216.76 51.473 215.692 51.897 214.932C52.321 214.172 53.081 213.792 54.177 213.792C55.273 213.792 56.033 214.172 56.457 214.932C56.881 215.692 57.093 216.76 57.093 218.136C57.093 219.536 56.881 220.62 56.457 221.388C56.033 222.156 55.273 222.54 54.177 222.54C53.073 222.54 52.309 222.156 51.885 221.388C51.469 220.62 51.261 219.536 51.261 218.136ZM56.265 218.136C56.265 217.392 56.213 216.764 56.109 216.252C56.005 215.74 55.801 215.328 55.497 215.016C55.193 214.704 54.753 214.548 54.177 214.548C53.601 214.548 53.161 214.704 52.857 215.016C52.553 215.328 52.349 215.74 52.245 216.252C52.141 216.764 52.089 217.392 52.089 218.136C52.089 218.904 52.141 219.548 52.245 220.068C52.349 220.58 52.553 220.992 52.857 221.304C53.161 221.616 53.601 221.772 54.177 221.772C54.753 221.772 55.193 221.616 55.497 221.304C55.801 220.992 56.005 220.58 56.109 220.068C56.213 219.548 56.265 218.904 56.265 218.136ZM58.6555 218.136C58.6555 216.76 58.8675 215.692 59.2915 214.932C59.7155 214.172 60.4755 213.792 61.5715 213.792C62.6675 213.792 63.4275 214.172 63.8515 214.932C64.2755 215.692 64.4875 216.76 64.4875 218.136C64.4875 219.536 64.2755 220.62 63.8515 221.388C63.4275 222.156 62.6675 222.54 61.5715 222.54C60.4675 222.54 59.7035 222.156 59.2795 221.388C58.8635 220.62 58.6555 219.536 58.6555 218.136ZM63.6595 218.136C63.6595 217.392 63.6075 216.764 63.5035 216.252C63.3995 215.74 63.1955 215.328 62.8915 215.016C62.5875 214.704 62.1475 214.548 61.5715 214.548C60.9955 214.548 60.5555 214.704 60.2515 215.016C59.9475 215.328 59.7435 215.74 59.6395 216.252C59.5355 216.764 59.4835 217.392 59.4835 218.136C59.4835 218.904 59.5355 219.548 59.6395 220.068C59.7435 220.58 59.9475 220.992 60.2515 221.304C60.5555 221.616 60.9955 221.772 61.5715 221.772C62.1475 221.772 62.5875 221.616 62.8915 221.304C63.1955 220.992 63.3995 220.58 63.5035 220.068C63.6075 219.548 63.6595 218.904 63.6595 218.136ZM66.05 218.136C66.05 216.76 66.262 215.692 66.686 214.932C67.11 214.172 67.87 213.792 68.966 213.792C70.062 213.792 70.822 214.172 71.246 214.932C71.67 215.692 71.882 216.76 71.882 218.136C71.882 219.536 71.67 220.62 71.246 221.388C70.822 222.156 70.062 222.54 68.966 222.54C67.862 222.54 67.098 222.156 66.674 221.388C66.258 220.62 66.05 219.536 66.05 218.136ZM71.054 218.136C71.054 217.392 71.002 216.764 70.898 216.252C70.794 215.74 70.59 215.328 70.286 215.016C69.982 214.704 69.542 214.548 68.966 214.548C68.39 214.548 67.95 214.704 67.646 215.016C67.342 215.328 67.138 215.74 67.034 216.252C66.93 216.764 66.878 217.392 66.878 218.136C66.878 218.904 66.93 219.548 67.034 220.068C67.138 220.58 67.342 220.992 67.646 221.304C67.95 221.616 68.39 221.772 68.966 221.772C69.542 221.772 69.982 221.616 70.286 221.304C70.59 220.992 70.794 220.58 70.898 220.068C71.002 219.548 71.054 218.904 71.054 218.136ZM73.4446 218.136C73.4446 216.76 73.6566 215.692 74.0806 214.932C74.5046 214.172 75.2646 213.792 76.3606 213.792C77.4566 213.792 78.2166 214.172 78.6406 214.932C79.0646 215.692 79.2766 216.76 79.2766 218.136C79.2766 219.536 79.0646 220.62 78.6406 221.388C78.2166 222.156 77.4566 222.54 76.3606 222.54C75.2566 222.54 74.4926 222.156 74.0686 221.388C73.6526 220.62 73.4446 219.536 73.4446 218.136ZM78.4486 218.136C78.4486 217.392 78.3966 216.764 78.2926 216.252C78.1886 215.74 77.9846 215.328 77.6806 215.016C77.3766 214.704 76.9366 214.548 76.3606 214.548C75.7846 214.548 75.3446 214.704 75.0406 215.016C74.7366 215.328 74.5326 215.74 74.4286 216.252C74.3246 216.764 74.2726 217.392 74.2726 218.136C74.2726 218.904 74.3246 219.548 74.4286 220.068C74.5326 220.58 74.7366 220.992 75.0406 221.304C75.3446 221.616 75.7846 221.772 76.3606 221.772C76.9366 221.772 77.3766 221.616 77.6806 221.304C77.9846 220.992 78.1886 220.58 78.2926 220.068C78.3966 219.548 78.4486 218.904 78.4486 218.136Z" fill="white"/>
<rect x="97.3237" y="207.348" width="32.6135" height="19.668" stroke="#A6A6A6"/>
<path d="M101.242 221.856C102.714 220.752 103.85 219.764 104.65 218.892C105.458 218.012 105.862 217.152 105.862 216.312C105.862 215.76 105.722 215.32 105.442 214.992C105.17 214.656 104.722 214.488 104.098 214.488C103.49 214.488 103.018 214.68 102.682 215.064C102.354 215.44 102.17 215.944 102.13 216.576H101.314C101.362 215.688 101.634 215 102.13 214.512C102.634 214.016 103.29 213.768 104.098 213.768C104.874 213.768 105.502 213.988 105.982 214.428C106.462 214.86 106.702 215.476 106.702 216.276C106.702 217.244 106.298 218.184 105.49 219.096C104.69 220 103.702 220.884 102.526 221.748H106.966V222.456H101.242V221.856ZM113.702 214.632H109.31V217.704C109.51 217.424 109.802 217.196 110.186 217.02C110.57 216.836 110.986 216.744 111.434 216.744C112.09 216.744 112.626 216.88 113.042 217.152C113.458 217.416 113.758 217.764 113.942 218.196C114.126 218.62 114.218 219.076 114.218 219.564C114.218 220.124 114.11 220.632 113.894 221.088C113.686 221.536 113.362 221.892 112.922 222.156C112.49 222.42 111.95 222.552 111.302 222.552C110.478 222.552 109.81 222.34 109.298 221.916C108.786 221.484 108.474 220.904 108.362 220.176H109.19C109.294 220.704 109.534 221.112 109.91 221.4C110.286 221.688 110.75 221.832 111.302 221.832C111.998 221.832 112.522 221.628 112.874 221.22C113.234 220.804 113.414 220.256 113.414 219.576C113.414 218.912 113.234 218.396 112.874 218.028C112.514 217.652 111.998 217.464 111.326 217.464C110.862 217.464 110.454 217.572 110.102 217.788C109.75 218.004 109.49 218.296 109.322 218.664H108.53V213.9H113.702V214.632ZM121.108 214.632H116.716V217.704C116.916 217.424 117.208 217.196 117.592 217.02C117.976 216.836 118.392 216.744 118.84 216.744C119.496 216.744 120.032 216.88 120.448 217.152C120.864 217.416 121.164 217.764 121.348 218.196C121.532 218.62 121.624 219.076 121.624 219.564C121.624 220.124 121.516 220.632 121.3 221.088C121.092 221.536 120.768 221.892 120.328 222.156C119.896 222.42 119.356 222.552 118.708 222.552C117.884 222.552 117.216 222.34 116.704 221.916C116.192 221.484 115.88 220.904 115.768 220.176H116.596C116.7 220.704 116.94 221.112 117.316 221.4C117.692 221.688 118.156 221.832 118.708 221.832C119.404 221.832 119.928 221.628 120.28 221.22C120.64 220.804 120.82 220.256 120.82 219.576C120.82 218.912 120.64 218.396 120.28 218.028C119.92 217.652 119.404 217.464 118.732 217.464C118.268 217.464 117.86 217.572 117.508 217.788C117.156 218.004 116.896 218.296 116.728 218.664H115.936V213.9H121.108V214.632Z" fill="white"/>
<rect x="136.597" y="207.348" width="32.6135" height="19.668" stroke="#A6A6A6"/>
<path d="M140.516 221.856C141.988 220.752 143.124 219.764 143.924 218.892C144.732 218.012 145.136 217.152 145.136 216.312C145.136 215.76 144.996 215.32 144.716 214.992C144.444 214.656 143.996 214.488 143.372 214.488C142.764 214.488 142.292 214.68 141.956 215.064C141.628 215.44 141.444 215.944 141.404 216.576H140.588C140.636 215.688 140.908 215 141.404 214.512C141.908 214.016 142.564 213.768 143.372 213.768C144.148 213.768 144.776 213.988 145.256 214.428C145.736 214.86 145.976 215.476 145.976 216.276C145.976 217.244 145.572 218.184 144.764 219.096C143.964 220 142.976 220.884 141.8 221.748H146.24V222.456H140.516V221.856ZM152.975 214.632H148.583V217.704C148.783 217.424 149.075 217.196 149.459 217.02C149.843 216.836 150.259 216.744 150.707 216.744C151.363 216.744 151.899 216.88 152.315 217.152C152.731 217.416 153.031 217.764 153.215 218.196C153.399 218.62 153.491 219.076 153.491 219.564C153.491 220.124 153.383 220.632 153.167 221.088C152.959 221.536 152.635 221.892 152.195 222.156C151.763 222.42 151.223 222.552 150.575 222.552C149.751 222.552 149.083 222.34 148.571 221.916C148.059 221.484 147.747 220.904 147.635 220.176H148.463C148.567 220.704 148.807 221.112 149.183 221.4C149.559 221.688 150.023 221.832 150.575 221.832C151.271 221.832 151.795 221.628 152.147 221.22C152.507 220.804 152.687 220.256 152.687 219.576C152.687 218.912 152.507 218.396 152.147 218.028C151.787 217.652 151.271 217.464 150.599 217.464C150.135 217.464 149.727 217.572 149.375 217.788C149.023 218.004 148.763 218.296 148.595 218.664H147.803V213.9H152.975V214.632ZM160.381 214.632H155.989V217.704C156.189 217.424 156.481 217.196 156.865 217.02C157.249 216.836 157.665 216.744 158.113 216.744C158.769 216.744 159.305 216.88 159.721 217.152C160.137 217.416 160.437 217.764 160.621 218.196C160.805 218.62 160.897 219.076 160.897 219.564C160.897 220.124 160.789 220.632 160.573 221.088C160.365 221.536 160.041 221.892 159.601 222.156C159.169 222.42 158.629 222.552 157.981 222.552C157.157 222.552 156.489 222.34 155.977 221.916C155.465 221.484 155.153 220.904 155.041 220.176H155.869C155.973 220.704 156.213 221.112 156.589 221.4C156.965 221.688 157.429 221.832 157.981 221.832C158.677 221.832 159.201 221.628 159.553 221.22C159.913 220.804 160.093 220.256 160.093 219.576C160.093 218.912 159.913 218.396 159.553 218.028C159.193 217.652 158.677 217.464 158.005 217.464C157.541 217.464 157.133 217.572 156.781 217.788C156.429 218.004 156.169 218.296 156.001 218.664H155.209V213.9H160.381V214.632Z" fill="white"/>
<rect x="174.755" y="207.348" width="32.6135" height="19.668" stroke="#A6A6A6"/>
<rect x="212.755" y="207.348" width="32.6135" height="19.668" stroke="#A6A6A6"/>
<path d="M178.674 221.856C180.146 220.752 181.282 219.764 182.082 218.892C182.89 218.012 183.294 217.152 183.294 216.312C183.294 215.76 183.154 215.32 182.874 214.992C182.602 214.656 182.154 214.488 181.53 214.488C180.922 214.488 180.45 214.68 180.114 215.064C179.786 215.44 179.602 215.944 179.562 216.576H178.746C178.794 215.688 179.066 215 179.562 214.512C180.066 214.016 180.722 213.768 181.53 213.768C182.306 213.768 182.934 213.988 183.414 214.428C183.894 214.86 184.134 215.476 184.134 216.276C184.134 217.244 183.73 218.184 182.922 219.096C182.122 220 181.134 220.884 179.958 221.748H184.398V222.456H178.674V221.856ZM191.133 214.632H186.741V217.704C186.941 217.424 187.233 217.196 187.617 217.02C188.001 216.836 188.417 216.744 188.865 216.744C189.521 216.744 190.057 216.88 190.473 217.152C190.889 217.416 191.189 217.764 191.373 218.196C191.557 218.62 191.649 219.076 191.649 219.564C191.649 220.124 191.541 220.632 191.325 221.088C191.117 221.536 190.793 221.892 190.353 222.156C189.921 222.42 189.381 222.552 188.733 222.552C187.909 222.552 187.241 222.34 186.729 221.916C186.217 221.484 185.905 220.904 185.793 220.176H186.621C186.725 220.704 186.965 221.112 187.341 221.4C187.717 221.688 188.181 221.832 188.733 221.832C189.429 221.832 189.953 221.628 190.305 221.22C190.665 220.804 190.845 220.256 190.845 219.576C190.845 218.912 190.665 218.396 190.305 218.028C189.945 217.652 189.429 217.464 188.757 217.464C188.293 217.464 187.885 217.572 187.533 217.788C187.181 218.004 186.921 218.296 186.753 218.664H185.961V213.9H191.133V214.632ZM198.539 214.632H194.147V217.704C194.347 217.424 194.639 217.196 195.023 217.02C195.407 216.836 195.823 216.744 196.271 216.744C196.927 216.744 197.463 216.88 197.879 217.152C198.295 217.416 198.595 217.764 198.779 218.196C198.963 218.62 199.055 219.076 199.055 219.564C199.055 220.124 198.947 220.632 198.731 221.088C198.523 221.536 198.199 221.892 197.759 222.156C197.327 222.42 196.787 222.552 196.139 222.552C195.315 222.552 194.647 222.34 194.135 221.916C193.623 221.484 193.311 220.904 193.199 220.176H194.027C194.131 220.704 194.371 221.112 194.747 221.4C195.123 221.688 195.587 221.832 196.139 221.832C196.835 221.832 197.359 221.628 197.711 221.22C198.071 220.804 198.251 220.256 198.251 219.576C198.251 218.912 198.071 218.396 197.711 218.028C197.351 217.652 196.835 217.464 196.163 217.464C195.699 217.464 195.291 217.572 194.939 217.788C194.587 218.004 194.327 218.296 194.159 218.664H193.367V213.9H198.539V214.632Z" fill="white"/>
<path d="M216.434 214.668V213.912H218.474V222.516H217.622V214.668H216.434Z" fill="white"/>
<rect x="234.433" y="182.289" width="17.3145" height="17.3145" rx="2.5" fill="black" stroke="#999999"/>
<defs>
<linearGradient id="paint0_linear_810_3099" x1="135.868" y1="15.1621" x2="12.1895" y2="15.1621" gradientUnits="userSpaceOnUse">
<stop stop-color="#FF0000"/>
<stop offset="1" stop-color="white"/>
</linearGradient>
<linearGradient id="paint1_linear_810_3099" x1="135.868" y1="15.1621" x2="135.868" y2="173.387" gradientUnits="userSpaceOnUse">
<stop stop-opacity="0"/>
<stop offset="1"/>
</linearGradient>
<linearGradient id="paint2_linear_810_3099" x1="23.0059" y1="190.946" x2="227.703" y2="190.946" gradientUnits="userSpaceOnUse">
<stop stop-color="#FF0000"/>
<stop offset="0.15625" stop-color="#FFF500"/>
<stop offset="0.322917" stop-color="#00FF0A"/>
<stop offset="0.5" stop-color="#00FFF0"/>
<stop offset="0.6875" stop-color="#0029FF"/>
<stop offset="0.838542" stop-color="#FF00E6"/>
<stop offset="1" stop-color="#FF0000"/>
</linearGradient>
</defs>
</svg>
