<svg width="136" height="21" viewBox="0 0 136 21" fill="none" xmlns="http://www.w3.org/2000/svg">
<path d="M12.7055 2.09156L14.4655 5.61156C14.7055 6.10156 15.3455 6.57156 15.8855 6.66156L19.0755 7.19156C21.1155 7.53156 21.5955 9.01156 20.1255 10.4716L17.6455 12.9516C17.2255 13.3716 16.9955 14.1816 17.1255 14.7616L17.8355 17.8316C18.3955 20.2616 17.1055 21.2016 14.9555 19.9316L11.9655 18.1616C11.4255 17.8416 10.5355 17.8416 9.9855 18.1616L6.9955 19.9316C4.8555 21.2016 3.5555 20.2516 4.11549 17.8316L4.8255 14.7616C4.95549 14.1816 4.7255 13.3716 4.3055 12.9516L1.82549 10.4716C0.365495 9.01156 0.835495 7.53156 2.8755 7.19156L6.0655 6.66156C6.5955 6.57156 7.2355 6.10156 7.47549 5.61156L9.2355 2.09156C10.1955 0.181558 11.7555 0.181558 12.7055 2.09156Z" fill="#E0D9CE"/>
<path d="M41.4555 2.09156L43.2155 5.61156C43.4555 6.10156 44.0955 6.57156 44.6355 6.66156L47.8255 7.19156C49.8655 7.53156 50.3455 9.01156 48.8755 10.4716L46.3955 12.9516C45.9755 13.3716 45.7455 14.1816 45.8755 14.7616L46.5855 17.8316C47.1455 20.2616 45.8555 21.2016 43.7055 19.9316L40.7155 18.1616C40.1755 17.8416 39.2855 17.8416 38.7355 18.1616L35.7455 19.9316C33.6055 21.2016 32.3055 20.2516 32.8655 17.8316L33.5755 14.7616C33.7055 14.1816 33.4755 13.3716 33.0555 12.9516L30.5755 10.4716C29.1155 9.01156 29.5855 7.53156 31.6255 7.19156L34.8155 6.66156C35.3455 6.57156 35.9855 6.10156 36.2255 5.61156L37.9855 2.09156C38.9455 0.181558 40.5055 0.181558 41.4555 2.09156Z" fill="#E0D9CE"/>
<path d="M70.2055 2.09156L71.9655 5.61156C72.2055 6.10156 72.8455 6.57156 73.3855 6.66156L76.5755 7.19156C78.6155 7.53156 79.0955 9.01156 77.6255 10.4716L75.1455 12.9516C74.7255 13.3716 74.4955 14.1816 74.6255 14.7616L75.3355 17.8316C75.8955 20.2616 74.6055 21.2016 72.4555 19.9316L69.4655 18.1616C68.9255 17.8416 68.0355 17.8416 67.4855 18.1616L64.4955 19.9316C62.3555 21.2016 61.0555 20.2516 61.6155 17.8316L62.3255 14.7616C62.4555 14.1816 62.2255 13.3716 61.8055 12.9516L59.3255 10.4716C57.8655 9.01156 58.3355 7.53156 60.3755 7.19156L63.5655 6.66156C64.0955 6.57156 64.7355 6.10156 64.9755 5.61156L66.7355 2.09156C67.6955 0.181558 69.2555 0.181558 70.2055 2.09156Z" fill="#E0D9CE"/>
<path d="M98.9545 2.09156L100.715 5.61156C100.955 6.10156 101.595 6.57156 102.135 6.66156L105.325 7.19156C107.365 7.53156 107.845 9.01156 106.375 10.4716L103.895 12.9516C103.475 13.3716 103.245 14.1816 103.375 14.7616L104.085 17.8316C104.645 20.2616 103.355 21.2016 101.205 19.9316L98.2145 18.1616C97.6745 17.8416 96.7845 17.8416 96.2345 18.1616L93.2445 19.9316C91.1045 21.2016 89.8045 20.2516 90.3645 17.8316L91.0745 14.7616C91.2045 14.1816 90.9745 13.3716 90.5545 12.9516L88.0745 10.4716C86.6145 9.01156 87.0845 7.53156 89.1245 7.19156L92.3145 6.66156C92.8445 6.57156 93.4845 6.10156 93.7245 5.61156L95.4845 2.09156C96.4445 0.181558 98.0045 0.181558 98.9545 2.09156Z" fill="#E0D9CE"/>
<path d="M127.705 2.09156L129.465 5.61156C129.705 6.10156 130.345 6.57156 130.885 6.66156L134.075 7.19156C136.115 7.53156 136.595 9.01156 135.125 10.4716L132.645 12.9516C132.225 13.3716 131.995 14.1816 132.125 14.7616L132.835 17.8316C133.395 20.2616 132.105 21.2016 129.955 19.9316L126.965 18.1616C126.425 17.8416 125.535 17.8416 124.985 18.1616L121.995 19.9316C119.855 21.2016 118.555 20.2516 119.115 17.8316L119.825 14.7616C119.955 14.1816 119.725 13.3716 119.305 12.9516L116.825 10.4716C115.365 9.01156 115.835 7.53156 117.875 7.19156L121.065 6.66156C121.595 6.57156 122.235 6.10156 122.475 5.61156L124.235 2.09156C125.195 0.181558 126.755 0.181558 127.705 2.09156Z" fill="#E0D9CE"/>
</svg>
