<svg width="275" height="42" viewBox="0 0 275 42" fill="none" xmlns="http://www.w3.org/2000/svg">
<path d="M44.3863 0.543045L44.3306 0.598712L44.3863 0.543038C43.8853 0.042139 43.0731 0.0421289 42.5722 0.543109C42.0713 1.04407 42.0712 1.85624 42.5722 2.35716L42.6265 2.30285L42.5722 2.35716C42.9565 2.74146 43.165 3.28627 43.1549 3.89454C43.1452 4.47559 42.9249 5.0327 42.5722 5.38547C41.811 6.1467 34.223 12.8087 28.2654 18.0197L26.9079 16.6623C31.2156 11.7336 36.5305 5.67457 38.673 3.30039L39.0952 3.72263L39.1508 3.66696L39.0952 3.72263C39.5961 4.22359 40.4084 4.22367 40.9092 3.72275C41.4102 3.22185 41.4103 2.40968 40.9094 1.9087L39.544 0.543168C39.3035 0.302592 38.9771 0.167391 38.637 0.167391H38.6369C38.2967 0.167391 37.9705 0.302529 37.7299 0.543038L37.7855 0.598712L37.7299 0.543043C36.9989 1.274 32.5602 6.31488 28.5357 10.9072C27.4483 9.28812 26.0081 7.89453 24.3011 6.82065C21.762 5.22321 18.803 4.41425 15.5083 4.41425C14.7832 4.41425 14.0656 4.45997 13.3756 4.55031C12.6731 4.64228 12.1782 5.28622 12.2701 5.9887L12.2701 5.98871C12.3621 6.69114 13.006 7.18602 13.7085 7.09411L13.6983 7.01605L13.7085 7.09411C14.2882 7.01824 14.8938 6.97973 15.5083 6.97973C20.4594 6.97973 24.6075 9.18909 26.7726 12.9204C24.7759 15.2022 23.0605 17.1671 22.2183 18.1325C20.7154 18.3432 19.5852 18.9649 18.7866 20.0301C18.0438 21.0208 17.7188 22.2021 17.3797 23.4342L17.3777 23.4415C16.9664 24.9364 16.546 26.4587 15.3522 27.6524C14.9853 28.0193 14.8755 28.571 15.0741 29.0503C15.2726 29.5297 15.7404 29.8422 16.2592 29.8422C19.5095 29.8422 22.0965 29.1496 23.9397 27.7738L23.8926 27.7107L23.9397 27.7738C25.5943 26.5387 26.5837 24.7869 26.8239 22.6867C29.9666 19.942 43.2738 8.31191 44.3862 7.19952C45.2142 6.37164 45.6992 5.18245 45.72 3.93744C45.7418 2.63181 45.2688 1.42559 44.3863 0.543045ZM22.4051 25.7179L22.4522 25.781L22.4051 25.7179C21.5014 26.3925 20.3043 26.8522 18.8258 27.0891C19.3176 26.062 19.6021 25.0279 19.8508 24.1238L19.8513 24.122C20.1311 23.1054 20.3531 22.3549 20.6733 21.8123C20.9827 21.2882 21.3834 20.959 22.0251 20.7799L24.1858 22.9406C23.9393 24.0863 23.3439 25.0172 22.4051 25.7179ZM24.4034 19.5301C24.6655 19.2298 24.937 18.9187 25.2163 18.5989L26.3297 19.7122C26.01 19.9915 25.6991 20.2631 25.3987 20.5253L24.4034 19.5301Z" fill="#5F5F5F" stroke="#5F5F5F" stroke-width="0.15745"/>
<path d="M10.1823 8.12657L10.1823 8.12655C10.2895 8.07481 10.3997 8.02396 10.5097 7.9755L10.5097 7.97548C11.1578 7.68937 11.4513 6.93204 11.1652 6.28393L11.1652 6.28393C10.8791 5.63589 10.1218 5.34241 9.47366 5.62845L9.47365 5.62846C9.33758 5.68853 9.20115 5.75151 9.0681 5.81564L9.06809 5.81564C8.42999 6.12331 8.16209 6.89006 8.46969 7.52816L8.4697 7.52817C8.69089 7.98685 9.14912 8.25411 9.62609 8.25411C9.81305 8.25411 10.0029 8.21302 10.1823 8.12657Z" fill="#5F5F5F" stroke="#5F5F5F" stroke-width="0.15745"/>
<path d="M18.3281 31.02L18.328 31.02C17.6205 31.013 17.0391 31.5797 17.031 32.2881C17.005 34.6047 16.8161 36.2563 16.1477 37.33C15.4867 38.3919 14.3444 38.9039 12.3561 38.9039C10.1506 38.9039 7.81644 37.2881 5.96083 34.4359C3.91698 31.2942 2.78949 27.2119 2.78949 22.9406C2.78949 17.3927 4.46485 12.7887 7.49386 9.96683C8.01221 9.48394 8.04094 8.67222 7.55806 8.15387C7.07517 7.63551 6.26345 7.60678 5.7451 8.08967L5.79876 8.14727L5.7451 8.08967C3.93835 9.7729 2.54198 11.9585 1.59333 14.5838C0.6843 17.0994 0.224009 19.9113 0.224009 22.9406C0.224009 27.699 1.49665 32.2784 3.81044 35.8349C6.13367 39.406 9.24584 41.4694 12.3561 41.4694C15.3162 41.4694 17.3973 40.426 18.5162 38.3529C19.4722 36.5814 19.5741 34.2989 19.5963 32.317C19.6043 31.6086 19.0365 31.0279 18.3281 31.02Z" fill="#5F5F5F" stroke="#5F5F5F" stroke-width="0.15745"/>
<path d="M24.3308 13.269C24.3308 11.0138 22.4961 9.17909 20.2408 9.17909C17.9855 9.17909 16.1508 11.0138 16.1508 13.269C16.1508 15.5244 17.9855 17.3591 20.2408 17.3591C22.4961 17.3591 24.3308 15.5244 24.3308 13.269ZM18.7162 13.269C18.7162 12.4285 19.4002 11.7446 20.2408 11.7446C21.0814 11.7446 21.7653 12.4285 21.7653 13.269C21.7653 14.1097 21.0814 14.7936 20.2408 14.7936C19.4002 14.7936 18.7162 14.1096 18.7162 13.269Z" fill="#5F5F5F" stroke="#5F5F5F" stroke-width="0.15745"/>
<path d="M10.6812 18.8044C12.9365 18.8044 14.7712 16.9697 14.7712 14.7144C14.7712 12.4591 12.9365 10.6244 10.6812 10.6244C8.4259 10.6244 6.5912 12.4591 6.5912 14.7144C6.5912 16.9697 8.4259 18.8044 10.6812 18.8044ZM10.6812 13.1899C11.5218 13.1899 12.2058 13.8739 12.2058 14.7144C12.2058 15.555 11.5218 16.2389 10.6812 16.2389C9.84064 16.2389 9.15668 15.555 9.15668 14.7144C9.15668 13.8739 9.84071 13.1899 10.6812 13.1899Z" fill="#5F5F5F" stroke="#5F5F5F" stroke-width="0.15745"/>
<path d="M11.699 23.9254C11.699 21.6701 9.86427 19.8353 7.60895 19.8353C5.35364 19.8353 3.51893 21.6701 3.51893 23.9254C3.51893 26.1807 5.35364 28.0154 7.60895 28.0154C9.86426 28.0154 11.699 26.1807 11.699 23.9254ZM7.60895 25.4499C6.76838 25.4499 6.08441 24.766 6.08441 23.9254C6.08441 23.0848 6.76838 22.4008 7.60895 22.4008C8.44952 22.4008 9.13349 23.0848 9.13349 23.9254C9.13349 24.7659 8.44952 25.4499 7.60895 25.4499Z" fill="#5F5F5F" stroke="#5F5F5F" stroke-width="0.15745"/>
<path d="M11.8218 37.402C14.0771 37.402 15.9119 35.5673 15.9119 33.312C15.9119 31.0568 14.0771 29.2221 11.8218 29.2221C9.56653 29.2221 7.73182 31.0568 7.73182 33.312C7.73182 35.5673 9.56653 37.402 11.8218 37.402ZM11.8218 31.7875C12.6624 31.7875 13.3464 32.4715 13.3464 33.312C13.3464 34.1526 12.6624 34.8365 11.8218 34.8365C10.9813 34.8365 10.2973 34.1526 10.2973 33.312C10.2973 32.4714 10.9813 31.7875 11.8218 31.7875Z" fill="#5F5F5F" stroke="#5F5F5F" stroke-width="0.15745"/>
<path d="M82.4979 8.99703L83.2922 9.7913L82.4979 8.99703C81.9864 9.50858 81.9867 10.3381 82.4987 10.8491L82.4987 10.8491L84.0423 12.3898C84.303 12.6501 84.646 12.7775 84.9874 12.7722C84.9822 13.1139 85.1099 13.4573 85.3706 13.718L86.1593 12.9294L85.3706 13.718L87.4851 15.8325C87.7459 16.0933 88.0892 16.221 88.431 16.2158C88.4257 16.5575 88.5535 16.9009 88.8142 17.1616L90.9287 19.2761C91.4399 19.7873 92.2687 19.7873 92.78 19.2761L97.1902 14.8659C97.7013 14.3547 97.7014 13.526 97.1903 13.0148L88.7626 4.58394L87.978 5.36829L88.7626 4.58394C88.2514 4.07256 87.4224 4.07249 86.9112 4.58377L82.4979 8.99703ZM108.031 5.27684L108.031 5.27685L103.87 9.43787C103.358 9.94907 103.358 10.7779 103.87 11.2891L108.28 15.6993C108.791 16.2105 109.62 16.2105 110.131 15.6993L114.292 11.5383C114.743 11.0874 114.806 10.3731 114.43 9.84996L113.471 10.5385L114.43 9.84995C113.796 8.96694 113.092 8.1026 112.279 7.28985L111.448 8.12133L112.279 7.28985C111.466 6.47709 110.602 5.77269 109.719 5.13892L109.031 6.09729L109.719 5.13892C109.196 4.76336 108.482 4.82595 108.031 5.27684ZM83.9316 29.6868L85.086 29.9177L83.9316 29.6868L82.8291 35.1995C82.6459 36.1155 83.4534 36.9231 84.3694 36.7399L89.8821 35.6373L89.8822 35.6373C90.1356 35.5866 90.3683 35.4621 90.5511 35.2793L107.654 18.1763L106.819 17.3413L107.654 18.1763C108.165 17.6651 108.165 16.8363 107.654 16.325L106.819 17.16L107.654 16.325L103.244 11.9149L102.409 12.7499L103.244 11.9148C102.733 11.4036 101.904 11.4036 101.393 11.9149L84.2896 29.0179C84.1069 29.2006 83.9823 29.4334 83.9316 29.6868ZM108.72 37.0702L109.556 36.236L108.72 37.0702C109.231 37.5822 110.06 37.5826 110.572 37.071L114.985 32.6578C115.496 32.1465 115.496 31.3175 114.985 30.8064L114.985 30.8063L106.554 22.3786L105.719 23.2138L106.554 22.3786C106.043 21.8676 105.214 21.8676 104.703 22.3788L100.293 26.789C99.7816 27.3002 99.7816 28.129 100.293 28.6402L102.407 30.7547C102.668 31.0155 103.011 31.1432 103.353 31.138C103.348 31.4797 103.476 31.8231 103.736 32.0838L105.851 34.1983C106.112 34.459 106.455 34.5868 106.797 34.5816C106.791 34.9229 106.919 35.2659 107.179 35.5266L107.179 35.5267L108.72 37.0702ZM105.851 28.1181L105.85 28.1193L105.851 28.1181ZM106.373 28.6402C106.373 28.6407 106.372 28.641 106.372 28.6414L106.373 28.6402Z" stroke="#5F5F5F" stroke-width="2.36175"/>
<path d="M254.776 5.32813C253.119 5.32672 251.959 6.61143 251.959 8.14389V37.9072C251.959 38.418 252.535 38.7163 252.952 38.4215L262.858 31.4209C263.076 31.267 263.367 31.2669 263.585 31.4207L273.506 38.4226C273.923 38.7171 274.499 38.4187 274.499 37.9081V34.8973V8.12395C274.499 6.76233 273.452 5.34708 271.681 5.34528L254.776 5.32813ZM256.185 8.1316H270.272C271.077 8.1316 271.681 8.73552 271.681 9.54032V32.3118C271.681 32.8148 271.12 33.1148 270.702 32.8358L263.578 28.0866C263.367 27.9456 263.091 27.9456 262.879 28.0866L255.756 32.8358C255.337 33.1148 254.776 32.8148 254.776 32.3118V9.54032C254.776 8.73552 255.38 8.1316 256.185 8.1316Z" fill="#5F5F5F"/>
<path d="M202.343 37.7266H163.565C162.67 37.7266 162.073 38.3232 162.073 39.218C162.073 40.1129 162.67 40.7095 163.565 40.7095H202.343C203.238 40.7095 203.835 40.1129 203.835 39.218C203.835 38.3232 203.238 37.7266 202.343 37.7266Z" fill="#5F5F5F"/>
<path d="M168.636 22.3654L179.076 32.8057C179.374 33.104 179.673 33.2532 180.12 33.2532C180.568 33.2532 180.866 33.104 181.164 32.8057L191.455 22.5145L193.693 20.2773C194.289 19.6807 194.289 18.7859 193.693 18.1893L180.418 4.76598L176.69 1.03729C176.093 0.440696 175.198 0.440696 174.602 1.03729C174.005 1.63388 174.005 2.52876 174.602 3.12535L177.286 5.81001L165.802 17.2944C165.205 17.891 165.205 18.7859 165.802 19.3824L168.636 22.3654ZM179.374 7.89808L179.971 8.64382L190.411 19.0842L189.815 19.8299H170.276L168.785 18.3384L179.374 7.89808Z" fill="#5F5F5F"/>
<path d="M199.749 28.7784C199.749 30.7052 198.304 32.1507 196.377 32.1507C194.45 32.1507 193.004 30.7052 193.004 28.7784C193.004 28.4806 193.104 28.0887 193.33 27.6112C193.552 27.1422 193.866 26.6517 194.222 26.1745C194.934 25.219 195.741 24.4103 196.112 24.0393C196.21 23.9411 196.305 23.9146 196.377 23.9146C196.448 23.9146 196.543 23.9411 196.641 24.0393C197.012 24.4103 197.82 25.219 198.532 26.1745C198.888 26.6517 199.202 27.1422 199.424 27.6112C199.649 28.0887 199.749 28.4806 199.749 28.7784Z" stroke="#5F5F5F" stroke-width="2.2043"/>
<path d="M188.16 22.207H172.592L180.151 30.0692L188.16 22.207Z" fill="#FBFBFB"/>
</svg>
