<svg width="27" height="24" viewBox="0 0 27 24" fill="none" xmlns="http://www.w3.org/2000/svg">
<path d="M21.7844 14.2012V16.5491C21.7844 19.8628 19.0981 22.5491 15.7844 22.5491H7.78442C4.47072 22.5491 1.78442 19.8628 1.78442 16.5491V8.54907C1.78442 5.23536 4.47072 2.54907 7.78442 2.54907H11.7844H13.953" stroke="#E0D9CE" stroke-width="2.1" stroke-linecap="round"/>
<path d="M9.31691 15.4685C8.88733 15.8981 8.88733 16.5946 9.31691 17.0242C9.74649 17.4537 10.443 17.4537 10.8725 17.0242L9.31691 15.4685ZM10.8725 17.0242L21.2515 6.64525L19.6958 5.08961L9.31691 15.4685L10.8725 17.0242Z" fill="#E0D9CE"/>
<path d="M22.2946 3.74856L16.0896 4.68456C15.6839 4.74575 15.5205 5.24245 15.8106 5.53252L21.0796 10.8015C21.3697 11.0916 21.8664 10.9282 21.9275 10.5225L22.8635 4.31755C22.9138 3.98471 22.6274 3.69835 22.2946 3.74856Z" fill="#E0D9CE"/>
</svg>
