<svg width="56" height="55" viewBox="0 0 56 55" fill="none" xmlns="http://www.w3.org/2000/svg">
<g clip-path="url(#clip0_120_535)">
<path fill-rule="evenodd" clip-rule="evenodd" d="M27.5442 0.640137C12.3483 0.640137 0.0638428 13.0151 0.0638428 28.3247C0.0638428 40.5625 7.9349 50.9214 18.8542 54.5878C20.2193 54.8634 20.7194 53.9921 20.7194 53.2592C20.7194 52.6174 20.6744 50.4174 20.6744 48.1253C13.03 49.7756 11.4382 44.8251 11.4382 44.8251C10.2097 41.6166 8.38941 40.7919 8.38941 40.7919C5.8874 39.096 8.57166 39.096 8.57166 39.096C11.347 39.2794 12.8033 41.9378 12.8033 41.9378C15.2598 46.1543 19.2181 44.9629 20.8105 44.2294C21.0378 42.4418 21.7662 41.2043 22.5397 40.5169C16.4427 39.8751 10.028 37.4918 10.028 26.8577C10.028 23.8326 11.1192 21.3576 12.8483 19.4327C12.5755 18.7453 11.6198 15.903 13.1217 12.0988C13.1217 12.0988 15.442 11.3653 20.6738 14.9406C22.9138 14.3346 25.2238 14.0263 27.5442 14.0237C29.8645 14.0237 32.2298 14.3449 34.414 14.9406C39.6464 11.3653 41.9667 12.0988 41.9667 12.0988C43.4686 15.903 42.5123 18.7453 42.2395 19.4327C44.0142 21.3576 45.0605 23.8326 45.0605 26.8577C45.0605 37.4918 38.6457 39.8289 32.5032 40.5169C33.5045 41.3876 34.3685 43.0374 34.3685 45.6503C34.3685 49.3628 34.3235 52.3423 34.3235 53.2586C34.3235 53.9921 34.8241 54.8634 36.1887 54.5884C47.108 50.9209 54.979 40.5625 54.979 28.3247C55.024 13.0151 42.6946 0.640137 27.5442 0.640137Z" fill="#1F1F1F"/>
</g>
<defs>
<clipPath id="clip0_120_535">
<rect width="55.125" height="54" fill="#E0D9CE" transform="translate(0.0638428 0.640137)"/>
</clipPath>
</defs>
</svg>
