<svg width="16" height="17" viewBox="0 0 16 17" fill="none" xmlns="http://www.w3.org/2000/svg">
<path d="M8.74727 3.56258L8.58227 11.0626H7.44227L7.27727 3.56258H8.74727ZM8.07227 14.1076C7.81227 14.1076 7.59227 14.0176 7.41227 13.8376C7.23227 13.6576 7.14227 13.4376 7.14227 13.1776C7.14227 12.9176 7.23227 12.6976 7.41227 12.5176C7.59227 12.3376 7.81227 12.2476 8.07227 12.2476C8.32227 12.2476 8.53227 12.3376 8.70227 12.5176C8.88227 12.6976 8.97227 12.9176 8.97227 13.1776C8.97227 13.4376 8.88227 13.6576 8.70227 13.8376C8.53227 14.0176 8.32227 14.1076 8.07227 14.1076Z" fill="#1F1F1F"/>
<circle cx="7.85938" cy="7.85938" r="7.15938" transform="matrix(-1 0 0 1 15.9155 0.732422)" stroke="#1F1F1F" stroke-width="1.4"/>
</svg>
