<svg width="55" height="55" viewBox="0 0 55 55" fill="none" xmlns="http://www.w3.org/2000/svg">
<path d="M46.1403 4.94019H9.03966C6.76209 4.94019 4.91736 6.78491 4.91736 9.06248V46.1632C4.91736 48.4407 6.76209 50.2855 9.03966 50.2855H46.1403C48.4179 50.2855 50.2626 48.4407 50.2626 46.1632V9.06248C50.2626 6.78491 48.4179 4.94019 46.1403 4.94019ZM19.2506 42.0409H13.1702V22.4764H19.2506V42.0409ZM16.1486 19.6795C14.1884 19.6795 12.6034 18.0903 12.6034 16.1343C12.6034 14.1783 14.1905 12.5912 16.1486 12.5912C18.1025 12.5912 19.6917 14.1803 19.6917 16.1343C19.6917 18.0903 18.1025 19.6795 16.1486 19.6795ZM42.0263 42.0409H35.95V32.5266C35.95 30.2573 35.9088 27.3387 32.7903 27.3387C29.6264 27.3387 29.14 29.81 29.14 32.3617V42.0409H23.0637V22.4764H28.8968V25.1497H28.9792C29.7913 23.6121 31.7741 21.99 34.7319 21.99C40.8885 21.99 42.0263 26.0422 42.0263 31.3105V42.0409Z" fill="#1F1F1F"/>
</svg>
