<svg width="22" height="21" viewBox="0 0 22 21" fill="none" xmlns="http://www.w3.org/2000/svg">
<path d="M12.7026 1.98279L14.4626 5.50279C14.7026 5.99279 15.3426 6.46279 15.8826 6.55279L19.0726 7.08279C21.1126 7.42279 21.5926 8.90279 20.1226 10.3628L17.6426 12.8428C17.2226 13.2628 16.9926 14.0728 17.1226 14.6528L17.8326 17.7228C18.3926 20.1528 17.1026 21.0928 14.9526 19.8228L11.9626 18.0528C11.4226 17.7328 10.5326 17.7328 9.98257 18.0528L6.99257 19.8228C4.85257 21.0928 3.55257 20.1428 4.11257 17.7228L4.82257 14.6528C4.95257 14.0728 4.72257 13.2628 4.30257 12.8428L1.82257 10.3628C0.362565 8.90279 0.832566 7.42279 2.87257 7.08279L6.06257 6.55279C6.59257 6.46279 7.23257 5.99279 7.47257 5.50279L9.23257 1.98279C10.1926 0.072793 11.7526 0.072793 12.7026 1.98279Z" fill="#E0D9CE"/>
<path d="M12.7026 1.98279L14.4626 5.50279C14.7026 5.99279 15.3426 6.46279 15.8826 6.55279L19.0726 7.08279C21.1126 7.42279 21.5926 8.90279 20.1226 10.3628L17.6426 12.8428C17.2226 13.2628 16.9926 14.0728 17.1226 14.6528L17.8326 17.7228C18.3926 20.1528 17.1026 21.0928 14.9526 19.8228L11.9626 18.0528C11.4226 17.7328 10.5326 17.7328 9.98257 18.0528L6.99257 19.8228C4.85257 21.0928 3.55257 20.1428 4.11257 17.7228L4.82257 14.6528C4.95257 14.0728 4.72257 13.2628 4.30257 12.8428L1.82257 10.3628C0.362565 8.90279 0.832566 7.42279 2.87257 7.08279L6.06257 6.55279C6.59257 6.46279 7.23257 5.99279 7.47257 5.50279L9.23257 1.98279C10.1926 0.072793 11.7526 0.072793 12.7026 1.98279Z" fill="#E0D9CE" stroke="#6E6E6E" stroke-linecap="round" stroke-linejoin="round"/>
<g clip-path="url(#clip0_811_5867)">
<path d="M9.25251 1.98279L7.49251 5.50279C7.25251 5.99279 6.61251 6.46279 6.07251 6.55279L2.88251 7.08279C0.842514 7.42279 0.362514 8.90279 1.83251 10.3628L4.31251 12.8428C4.73251 13.2628 4.96251 14.0728 4.83251 14.6528L4.12251 17.7228C3.56251 20.1528 4.85251 21.0928 7.00251 19.8228L9.99251 18.0528C10.5325 17.7328 11.4225 17.7328 11.9725 18.0528L14.9625 19.8228C17.1025 21.0928 18.4025 20.1428 17.8425 17.7228L17.1325 14.6528C17.0025 14.0728 17.2325 13.2628 17.6525 12.8428L20.1325 10.3628C21.5925 8.90279 21.1225 7.42279 19.0825 7.08279L15.8925 6.55279C15.3625 6.46279 14.7225 5.99279 14.4825 5.50279L12.7225 1.98279C11.7625 0.072793 10.2025 0.072793 9.25251 1.98279Z" fill="#101010" stroke="#6E6E6E" stroke-linecap="round" stroke-linejoin="round"/>
</g>
<defs>
<clipPath id="clip0_811_5867">
<rect width="10" height="20" fill="white" transform="matrix(-1 0 0 1 20.9775 0.606201)"/>
</clipPath>
</defs>
</svg>
