<svg width="21" height="21" viewBox="0 0 21 21" fill="none" xmlns="http://www.w3.org/2000/svg">
<path d="M12.7055 2.09156L14.4655 5.61156C14.7055 6.10156 15.3455 6.57156 15.8855 6.66156L19.0755 7.19156C21.1155 7.53156 21.5955 9.01156 20.1255 10.4716L17.6455 12.9516C17.2255 13.3716 16.9955 14.1816 17.1255 14.7616L17.8355 17.8316C18.3955 20.2616 17.1055 21.2016 14.9555 19.9316L11.9655 18.1616C11.4255 17.8416 10.5355 17.8416 9.9855 18.1616L6.9955 19.9316C4.8555 21.2016 3.5555 20.2516 4.11549 17.8316L4.8255 14.7616C4.95549 14.1816 4.7255 13.3716 4.3055 12.9516L1.82549 10.4716C0.365495 9.01156 0.835495 7.53156 2.8755 7.19156L6.0655 6.66156C6.5955 6.57156 7.2355 6.10156 7.47549 5.61156L9.2355 2.09156C10.1955 0.181558 11.7555 0.181558 12.7055 2.09156Z" fill="#E0D9CE"/>
</svg>
