<svg width="22" height="21" viewBox="0 0 22 21" fill="none" xmlns="http://www.w3.org/2000/svg">
<path d="M12.7045 2.01111L14.4645 5.53111C14.7045 6.02111 15.3445 6.49111 15.8845 6.58111L19.0745 7.11111C21.1145 7.45111 21.5945 8.93111 20.1245 10.3911L17.6445 12.8711C17.2245 13.2911 16.9945 14.1011 17.1245 14.6811L17.8345 17.7511C18.3945 20.1811 17.1045 21.1211 14.9545 19.8511L11.9645 18.0811C11.4245 17.7611 10.5345 17.7611 9.98452 18.0811L6.99452 19.8511C4.85452 21.1211 3.55452 20.1711 4.11452 17.7511L4.82452 14.6811C4.95452 14.1011 4.72452 13.2911 4.30452 12.8711L1.82452 10.3911C0.364518 8.93111 0.834519 7.45111 2.87452 7.11111L6.06452 6.58111C6.59452 6.49111 7.23452 6.02111 7.47452 5.53111L9.23452 2.01111C10.1945 0.101113 11.7545 0.101113 12.7045 2.01111Z" stroke="#6F6F6F" stroke-linecap="round" stroke-linejoin="round"/>
</svg>
