<svg width="55" height="55" viewBox="0 0 55 55" fill="none" xmlns="http://www.w3.org/2000/svg">
<path fill-rule="evenodd" clip-rule="evenodd" d="M13.8457 2.9502C7.77057 2.9502 2.8457 7.87506 2.8457 13.9502V40.7043C2.8457 46.7795 7.77057 51.7043 13.8457 51.7043H40.5999C46.675 51.7043 51.5999 46.7795 51.5999 40.7043V13.9502C51.5999 7.87506 46.675 2.9502 40.5999 2.9502H13.8457ZM31.4415 20.296H41.2852V17.4836H31.4415V20.296ZM36.5392 38.5773C40.8592 38.5773 43.0909 36.1824 43.7124 34.3585H39.2574C37.7035 36.1628 32.9884 36.0207 32.8056 31.5053H44.0935C44.1132 30.1665 44.0696 29.2074 43.9599 28.4959C43.382 24.7778 40.7354 22.2718 36.4013 22.2718C31.9843 22.2718 28.7148 25.0984 28.7148 30.5968C28.7148 36.1459 32.2164 38.5773 36.5392 38.5773ZM39.886 28.7335H32.904C33.2007 26.6931 34.3412 25.6131 36.4028 25.6131C38.2885 25.6131 39.7384 26.5581 39.886 28.7335ZM10.3478 38.5604H19.4406C28.9806 38.5604 28.8174 28.9965 23.9504 27.2246C27.9723 25.1687 27.826 17.627 20.1254 17.5131H10.3478V38.5604ZM19.6065 25.921H14.5665V21.7023H19.1678C23.6931 21.7023 23.1334 25.921 19.6065 25.921ZM14.5665 30.1398H19.3351C23.2979 30.1398 23.5609 34.381 19.2648 34.381H14.5665V30.1398Z" fill="#E0D9CE"/>
</svg>
