<svg width="55" height="55" viewBox="0 0 55 55" fill="none" xmlns="http://www.w3.org/2000/svg">
<g clip-path="url(#clip0_121_544)">
<path d="M27.5 0.327148C12.3105 0.327148 0 12.4139 0 27.3271C0 42.2404 12.3105 54.3271 27.5 54.3271C42.6895 54.3271 55 42.2404 55 27.3271C55 12.4139 42.6895 0.327148 27.5 0.327148ZM44.666 44.1705C42.4316 46.3643 39.8428 48.0834 36.9531 49.2752C33.9668 50.5197 30.7871 51.142 27.5 51.142C24.2236 51.142 21.0439 50.5092 18.0469 49.2752C15.1572 48.0729 12.5576 46.3537 10.334 44.1705C8.09961 41.9768 6.34863 39.435 5.13477 36.5979C3.86719 33.6658 3.22266 30.5439 3.22266 27.3271C3.22266 24.1104 3.86719 20.9885 5.12402 18.0459C6.34863 15.2088 8.09961 12.6564 10.3232 10.4732C12.5684 8.27949 15.1572 6.56035 18.0469 5.35801C21.0439 4.12402 24.2236 3.49121 27.5 3.49121C30.7764 3.49121 33.9561 4.12402 36.9531 5.35801C39.8428 6.56035 42.4424 8.27949 44.666 10.4627C46.9004 12.6564 48.6514 15.1982 49.8652 18.0354C51.1328 20.9674 51.7666 24.0893 51.7666 27.3166C51.7666 30.5334 51.1221 33.6553 49.8652 36.5979C48.6406 39.435 46.8896 41.9873 44.666 44.1705Z" fill="#E0D9CE"/>
<path d="M38.6074 19.5542H31.3242V21.6319H38.6074V19.5542Z" fill="#E0D9CE"/>
<path d="M40.1328 25.1966C39.5635 24.3634 38.8437 23.7516 37.9629 23.3719C37.0928 22.9817 36.1045 22.7919 34.998 22.8024C33.1611 22.8024 31.668 23.3719 30.5078 24.511C29.3584 25.6501 28.7783 27.2848 28.7783 29.4259C28.7783 31.704 29.4229 33.3493 30.7012 34.3618C31.9795 35.3743 33.4512 35.8805 35.127 35.8805C37.1572 35.8805 38.7256 35.2794 39.8535 34.077C40.5732 33.3177 40.9814 32.5688 41.0674 31.8411H37.7158C37.5225 32.2102 37.2969 32.495 37.0391 32.6954C36.5664 33.0751 35.9541 33.2649 35.2129 33.2649C34.5039 33.2649 33.9023 33.1067 33.3975 32.8009C32.5703 32.3052 32.1406 31.4298 32.0869 30.1958H41.2393C41.2607 29.1305 41.2178 28.3184 41.1318 27.7489C40.9814 26.7786 40.6484 25.9243 40.1328 25.1966ZM32.1729 28.0653C32.3018 27.2637 32.5918 26.6309 33.0537 26.1563C33.5156 25.6923 34.1709 25.4497 35.0088 25.4497C35.7822 25.4497 36.4375 25.6712 36.9639 26.1141C37.4795 26.5571 37.7695 27.211 37.834 28.0653H32.1729Z" fill="#E0D9CE"/>
<path d="M25.0615 26.5151C25.6309 26.2303 26.0713 25.9139 26.3613 25.5659C26.8877 24.9436 27.1455 24.1209 27.1455 23.1084C27.1455 22.117 26.8877 21.2627 26.3721 20.5561C25.502 19.3959 24.0303 18.8053 21.9678 18.7737H13.75V35.4694H21.3984C22.2686 35.4694 23.0635 35.3956 23.8047 35.2479C24.5459 35.0897 25.1904 34.8155 25.7275 34.4042C26.2109 34.0561 26.6084 33.6131 26.9307 33.0963C27.4463 32.3159 27.6934 31.4299 27.6934 30.4385C27.6934 29.4788 27.4678 28.6666 27.0273 27.9916C26.5869 27.3166 25.9316 26.8315 25.0615 26.5151ZM17.1338 21.6741H20.8291C21.6455 21.6741 22.3115 21.769 22.8379 21.9377C23.4502 22.1909 23.751 22.6971 23.751 23.4776C23.751 24.1737 23.5254 24.6694 23.0635 24.9436C22.6016 25.2178 22.0107 25.3549 21.2695 25.3549H17.1338V21.6741ZM22.9883 32.2631C22.5801 32.4635 22.0107 32.5584 21.2695 32.5584H17.1338V28.1077H21.3232C22.0537 28.1182 22.6123 28.2131 23.0205 28.3924C23.751 28.7194 24.1055 29.3206 24.1055 30.1854C24.1055 31.2084 23.7402 31.894 22.9883 32.2631Z" fill="#E0D9CE"/>
</g>
<defs>
<clipPath id="clip0_121_544">
<rect width="55" height="54" fill="white" transform="translate(0 0.327148)"/>
</clipPath>
</defs>
</svg>
