<svg width="53" height="53" viewBox="0 0 53 53" fill="none" xmlns="http://www.w3.org/2000/svg">
<path d="M35.9304 29.1176V39.356C35.9304 47.888 32.5176 51.3008 23.9856 51.3008H13.7473C5.21528 51.3008 1.80249 47.888 1.80249 39.356V29.1176C1.80249 20.5856 5.21528 17.1729 13.7473 17.1729H23.9856C32.5176 17.1729 35.9304 20.5856 35.9304 29.1176Z" stroke="#E0D9CE" stroke-width="3.32" stroke-linecap="round" stroke-linejoin="round"/>
<path d="M50.5566 14.4914V24.7298C50.5566 33.2617 47.1438 36.6745 38.6118 36.6745H35.9304V29.1176C35.9304 20.5857 32.5176 17.1729 23.9856 17.1729H16.4287V14.4914C16.4287 5.95942 19.8415 2.54663 28.3735 2.54663H38.6118C47.1438 2.54663 50.5566 5.95942 50.5566 14.4914Z" stroke="#E0D9CE" stroke-width="3.32" stroke-linecap="round" stroke-linejoin="round"/>
</svg>
