<svg width="56" height="55" viewBox="0 0 56 55" fill="none" xmlns="http://www.w3.org/2000/svg">
<g clip-path="url(#clip0_83_303)">
<path fill-rule="evenodd" clip-rule="evenodd" d="M27.5442 0.327148C12.3483 0.327148 0.0638428 12.7021 0.0638428 28.0117C0.0638428 40.2495 7.9349 50.6085 18.8542 54.2748C20.2193 54.5505 20.7194 53.6791 20.7194 52.9462C20.7194 52.3044 20.6744 50.1045 20.6744 47.8123C13.03 49.4626 11.4382 44.5121 11.4382 44.5121C10.2097 41.3036 8.38941 40.479 8.38941 40.479C5.8874 38.783 8.57166 38.783 8.57166 38.783C11.347 38.9664 12.8033 41.6248 12.8033 41.6248C15.2598 45.8413 19.2181 44.6499 20.8105 43.9164C21.0378 42.1288 21.7662 40.8913 22.5397 40.2039C16.4427 39.5621 10.028 37.1788 10.028 26.5447C10.028 23.5196 11.1192 21.0446 12.8483 19.1197C12.5755 18.4323 11.6198 15.59 13.1217 11.7858C13.1217 11.7858 15.442 11.0523 20.6738 14.6276C22.9138 14.0216 25.2238 13.7133 27.5442 13.7107C29.8645 13.7107 32.2298 14.0319 34.414 14.6276C39.6464 11.0523 41.9667 11.7858 41.9667 11.7858C43.4686 15.59 42.5123 18.4323 42.2395 19.1197C44.0142 21.0446 45.0605 23.5196 45.0605 26.5447C45.0605 37.1788 38.6457 39.516 32.5032 40.2039C33.5045 41.0746 34.3685 42.7245 34.3685 45.3373C34.3685 49.0498 34.3235 52.0293 34.3235 52.9456C34.3235 53.6791 34.8241 54.5505 36.1887 54.2754C47.108 50.6079 54.979 40.2495 54.979 28.0117C55.024 12.7021 42.6946 0.327148 27.5442 0.327148Z" fill="#E0D9CE"/>
</g>
<defs>
<clipPath id="clip0_83_303">
<rect width="55.125" height="54" fill="#E0D9CE" transform="translate(0.0638428 0.327148)"/>
</clipPath>
</defs>
</svg>
