<svg width="52" height="52" viewBox="0 0 52 52" fill="none" xmlns="http://www.w3.org/2000/svg">
<path d="M49.3928 21.5205H26.3977V30.5717H39.8522C39.6076 32.7734 38.1398 36.1982 34.9597 38.3999C33.0026 39.8676 30.0671 40.8461 26.3977 40.8461C20.0373 40.8461 14.4109 36.6875 12.4538 30.5717C11.9646 29.104 11.72 27.3916 11.72 25.6792C11.72 23.9668 11.9646 22.2544 12.4538 20.7866C12.6985 20.2973 12.6985 19.8081 12.9431 19.5635C15.1448 14.4263 20.282 10.7568 26.3977 10.7568C31.0456 10.7568 33.9812 12.7139 35.9382 14.4263L42.7878 7.57665C38.6291 3.90722 33.0026 1.46094 26.3977 1.46094C16.8572 1.46094 8.53979 6.84277 4.62573 14.9155C2.91333 18.3403 1.93481 22.0097 1.93481 25.9238C1.93481 29.8379 2.91333 33.5073 4.62573 36.9321C8.53979 45.0048 16.8572 50.3867 26.3977 50.3867C33.0026 50.3867 38.6291 48.185 42.5432 44.5156C47.1911 40.3569 49.882 33.9965 49.882 26.4131C49.882 24.456 49.6374 22.9883 49.3928 21.5205Z" stroke="#E0D9CE" stroke-width="2.89495" stroke-miterlimit="10" stroke-linecap="round" stroke-linejoin="round"/>
</svg>
