<svg width="55" height="55" viewBox="0 0 55 55" fill="none" xmlns="http://www.w3.org/2000/svg">
<path fill-rule="evenodd" clip-rule="evenodd" d="M3.00452 16.7471C3.00452 9.12726 9.18159 2.9502 16.8014 2.9502H37.9618C45.5816 2.9502 51.7587 9.12726 51.7587 16.7471V37.9075C51.7587 45.5273 45.5816 51.7043 37.9618 51.7043H16.8014C9.18158 51.7043 3.00452 45.5273 3.00452 37.9075V16.7471ZM27.847 36.651C32.8752 36.651 36.9513 32.5749 36.9513 27.5467C36.9513 22.5185 32.8752 18.4424 27.847 18.4424C22.8188 18.4424 18.7427 22.5185 18.7427 27.5467C18.7427 32.5749 22.8188 36.651 27.847 36.651ZM27.847 39.9738C34.7103 39.9738 40.274 34.41 40.274 27.5467C40.274 20.6834 34.7103 15.1196 27.847 15.1196C20.9837 15.1196 15.4199 20.6834 15.4199 27.5467C15.4199 34.41 20.9837 39.9738 27.847 39.9738ZM41.0689 17.6164C42.6663 17.6164 43.9613 16.3215 43.9613 14.7241C43.9613 13.1267 42.6663 11.8318 41.0689 11.8318C39.4716 11.8318 38.1766 13.1267 38.1766 14.7241C38.1766 16.3215 39.4716 17.6164 41.0689 17.6164Z" fill="#E0D9CE"/>
</svg>
