<svg width="55" height="55" viewBox="0 0 55 55" fill="none" xmlns="http://www.w3.org/2000/svg">
<path d="M46.1403 4.6272H9.03966C6.76209 4.6272 4.91736 6.47193 4.91736 8.74949V45.8502C4.91736 48.1277 6.76209 49.9725 9.03966 49.9725H46.1403C48.4179 49.9725 50.2626 48.1277 50.2626 45.8502V8.74949C50.2626 6.47193 48.4179 4.6272 46.1403 4.6272ZM19.2506 41.7279H13.1702V22.1635H19.2506V41.7279ZM16.1486 19.3665C14.1884 19.3665 12.6034 17.7773 12.6034 15.8213C12.6034 13.8653 14.1905 12.2782 16.1486 12.2782C18.1025 12.2782 19.6917 13.8673 19.6917 15.8213C19.6917 17.7773 18.1025 19.3665 16.1486 19.3665ZM42.0263 41.7279H35.95V32.2136C35.95 29.9443 35.9088 27.0257 32.7903 27.0257C29.6264 27.0257 29.14 29.497 29.14 32.0487V41.7279H23.0637V22.1635H28.8968V24.8368H28.9792C29.7913 23.2991 31.7741 21.677 34.7319 21.677C40.8885 21.677 42.0263 25.7292 42.0263 30.9975V41.7279Z" fill="#E0D9CE"/>
</svg>
