<svg width="55" height="56" viewBox="0 0 55 56" fill="none" xmlns="http://www.w3.org/2000/svg">
<path d="M14.545 50.0255C18.3999 52.3384 23.0259 53.6234 27.6518 53.6234C41.7866 53.6234 53.3514 42.0586 53.3514 27.9238C53.3514 13.789 41.7866 2.22412 27.6518 2.22412C13.517 2.22412 1.95215 13.789 1.95215 27.9238C1.95215 32.5497 3.23713 36.9186 5.2931 40.7736L3.08293 49.2699C2.96891 49.7085 2.97289 50.1695 3.09449 50.606C3.21609 51.0426 3.45097 51.4393 3.77531 51.7558C4.09966 52.0723 4.50194 52.2974 4.94136 52.4083C5.38077 52.5192 5.8417 52.512 6.2774 52.3872L14.545 50.0255Z" stroke="#E0D9CE" stroke-width="2.89495" stroke-miterlimit="10" stroke-linecap="round" stroke-linejoin="round"/>
<path d="M42.4684 37.3005C42.4684 37.8339 42.3499 38.3838 42.0964 38.9171C41.8377 39.4683 41.4981 39.9776 41.0889 40.4284C40.3613 41.2284 39.5612 41.8046 38.6525 42.1767C37.7635 42.5487 36.7988 42.7397 35.7617 42.7397C34.2472 42.7397 32.6306 42.3841 30.9218 41.6597C29.1153 40.8765 27.4033 39.8913 25.8185 38.7229C24.0949 37.4638 22.4683 36.0771 20.9523 34.5744C19.4525 33.0668 18.069 31.4478 16.8137 29.7312C15.6601 28.1603 14.684 26.4664 13.9032 24.6806C13.192 22.985 12.8364 21.3717 12.8364 19.8341C12.8364 18.8266 13.0142 17.8652 13.3698 16.9763C13.7254 16.0709 14.2917 15.2412 15.0786 14.5004C16.0268 13.5653 17.0639 13.1077 18.1636 13.1077C18.5784 13.1077 18.9933 13.1966 19.3653 13.3744C19.7506 13.5521 20.0897 13.8188 20.3597 14.2041L23.8036 19.0505C24.067 19.4193 24.2645 19.7617 24.3962 20.0876C24.5279 20.3971 24.6036 20.7099 24.6036 20.9898C24.5993 21.3632 24.491 21.7281 24.2908 22.0434C24.0622 22.4288 23.7832 22.782 23.4611 23.0936L22.3318 24.2658C22.2533 24.3426 22.1916 24.435 22.1508 24.5371C22.11 24.6391 22.0909 24.7486 22.0948 24.8584C22.0948 24.9736 22.1112 25.079 22.1409 25.1975C22.1837 25.316 22.2298 25.4049 22.2594 25.4938C22.5228 25.9844 22.9837 26.6199 23.6389 27.3903C24.3073 28.1607 25.0185 28.9476 25.7889 29.7312C26.5923 30.5181 27.3627 31.2424 28.1496 31.9108C28.92 32.5594 29.5587 33.0039 30.0625 33.2706L30.3325 33.3924C30.4507 33.4346 30.5757 33.4547 30.7012 33.4517C30.8148 33.4541 30.9276 33.4328 31.0325 33.3892C31.1374 33.3455 31.232 33.2805 31.3103 33.1982L32.4363 32.0853C32.8084 31.7166 33.164 31.4367 33.5064 31.2556C33.8213 31.055 34.1866 30.9476 34.56 30.9461C34.8716 30.9507 35.1793 31.0167 35.4654 31.1404C35.7913 31.2721 36.1338 31.463 36.5025 31.7166L41.4148 35.2C41.7708 35.4315 42.0539 35.7591 42.2314 36.1449C42.3853 36.5109 42.4658 36.9035 42.4684 37.3005Z" stroke="#E0D9CE" stroke-width="2.89495" stroke-miterlimit="10"/>
</svg>
