<svg width="53" height="53" viewBox="0 0 53 53" fill="none" xmlns="http://www.w3.org/2000/svg">
<path d="M35.9304 28.7905V39.0288C35.9304 47.5608 32.5176 50.9736 23.9856 50.9736H13.7473C5.21528 50.9736 1.80249 47.5608 1.80249 39.0288V28.7905C1.80249 20.2585 5.21528 16.8457 13.7473 16.8457H23.9856C32.5176 16.8457 35.9304 20.2585 35.9304 28.7905Z" stroke="#E0D9CE" stroke-width="3.32" stroke-linecap="round" stroke-linejoin="round"/>
<path d="M50.5566 14.1642V24.4026C50.5566 32.9346 47.1438 36.3474 38.6118 36.3474H35.9304V28.7905C35.9304 20.2585 32.5176 16.8457 23.9856 16.8457H16.4287V14.1642C16.4287 5.63227 19.8415 2.21948 28.3735 2.21948H38.6118C47.1438 2.21948 50.5566 5.63227 50.5566 14.1642Z" stroke="#E0D9CE" stroke-width="3.32" stroke-linecap="round" stroke-linejoin="round"/>
</svg>
