<svg width="52" height="53" viewBox="0 0 52 53" fill="none" xmlns="http://www.w3.org/2000/svg">
<path d="M49.5038 21.7495H26.5088V30.8007H39.9633C39.7187 33.0024 38.2509 36.4272 35.0708 38.6289C33.1137 40.0966 30.1782 41.0751 26.5088 41.0751C20.1484 41.0751 14.522 36.9165 12.5649 30.8007C12.0757 29.333 11.831 27.6206 11.831 25.9082C11.831 24.1958 12.0757 22.4834 12.5649 21.0156C12.8096 20.5263 12.8096 20.0371 13.0542 19.7925C15.2558 14.6553 20.393 10.9858 26.5088 10.9858C31.1567 10.9858 34.0922 12.9429 36.0493 14.6553L42.8989 7.80566C38.7402 4.13623 33.1137 1.68994 26.5088 1.68994C16.9682 1.68994 8.65087 7.07177 4.73681 15.1445C3.02441 18.5693 2.0459 22.2387 2.0459 26.1528C2.0459 30.0669 3.02441 33.7363 4.73681 37.1611C8.65087 45.2338 16.9682 50.6157 26.5088 50.6157C33.1137 50.6157 38.7402 48.414 42.6542 44.7446C47.3022 40.5859 49.9931 34.2255 49.9931 26.6421C49.9931 24.685 49.7485 23.2173 49.5038 21.7495Z" stroke="#E0D9CE" stroke-width="2.89495" stroke-miterlimit="10" stroke-linecap="round" stroke-linejoin="round"/>
</svg>
