<svg width="55" height="55" viewBox="0 0 55 55" fill="none" xmlns="http://www.w3.org/2000/svg">
<path d="M14.545 49.6983C18.3999 52.0113 23.0259 53.2963 27.6518 53.2963C41.7866 53.2963 53.3514 41.7314 53.3514 27.5966C53.3514 13.4618 41.7866 1.89697 27.6518 1.89697C13.517 1.89697 1.95215 13.4618 1.95215 27.5966C1.95215 32.2225 3.23713 36.5915 5.2931 40.4464L3.08293 48.9427C2.96891 49.3814 2.97289 49.8423 3.09449 50.2789C3.21609 50.7155 3.45097 51.1121 3.77531 51.4286C4.09966 51.7452 4.50194 51.9703 4.94136 52.0812C5.38077 52.1921 5.8417 52.1848 6.2774 52.0601L14.545 49.6983Z" stroke="#E0D9CE" stroke-width="2.89495" stroke-miterlimit="10" stroke-linecap="round" stroke-linejoin="round"/>
<path d="M42.4689 36.9732C42.4689 37.5065 42.3504 38.0564 42.0969 38.5897C41.8382 39.1409 41.4986 39.6502 41.0894 40.101C40.3617 40.901 39.5617 41.4772 38.653 41.8493C37.764 42.2213 36.7993 42.4123 35.7622 42.4123C34.2477 42.4123 32.6311 42.0567 30.9223 41.3324C29.1158 40.5492 27.4038 39.5639 25.819 38.3955C24.0954 37.1364 22.4687 35.7497 20.9528 34.247C19.4529 32.7394 18.0695 31.1204 16.8142 29.4038C15.6606 27.8329 14.6845 26.139 13.9037 24.3532C13.1925 22.6576 12.8369 21.0443 12.8369 19.5067C12.8369 18.4992 13.0147 17.5379 13.3703 16.6489C13.7259 15.7435 14.2922 14.9138 15.0791 14.173C16.0273 13.2379 17.0644 12.7803 18.1641 12.7803C18.5789 12.7803 18.9938 12.8692 19.3658 13.047C19.751 13.2248 20.0902 13.4914 20.3601 13.8767L23.804 18.7231C24.0674 19.0919 24.265 19.4343 24.3967 19.7603C24.5284 20.0697 24.6041 20.3825 24.6041 20.6624C24.5998 21.0358 24.4915 21.4007 24.2913 21.716C24.0627 22.1014 23.7837 22.4546 23.4616 22.7663L22.3323 23.9384C22.2538 24.0152 22.1921 24.1076 22.1513 24.2097C22.1105 24.3117 22.0914 24.4212 22.0953 24.531C22.0953 24.6462 22.1117 24.7516 22.1414 24.8701C22.1842 24.9887 22.2303 25.0776 22.2599 25.1664C22.5233 25.657 22.9842 26.2925 23.6394 27.0629C24.3078 27.8333 25.019 28.6202 25.7894 29.4038C26.5927 30.1907 27.3632 30.9151 28.1501 31.5834C28.9205 32.232 29.5592 32.6765 30.063 32.9432L30.333 33.065C30.4512 33.1072 30.5762 33.1273 30.7017 33.1243C30.8153 33.1267 30.9281 33.1054 31.033 33.0618C31.1379 33.0181 31.2325 32.9531 31.3108 32.8708L32.4368 31.7579C32.8089 31.3892 33.1645 31.1093 33.5069 30.9282C33.8218 30.7276 34.1871 30.6203 34.5605 30.6187C34.8721 30.6233 35.1798 30.6893 35.4659 30.813C35.7918 30.9447 36.1342 31.1357 36.503 31.3892L41.4153 34.8726C41.7713 35.1041 42.0544 35.4318 42.2319 35.8175C42.3858 36.1835 42.4663 36.5761 42.4689 36.9732Z" stroke="#E0D9CE" stroke-width="2.89495" stroke-miterlimit="10"/>
</svg>
